<svg width="1401" height="312" viewBox="0 0 1401 312" fill="none" xmlns="http://www.w3.org/2000/svg">
<path d="M1245.06 307.8V3.7998H1318.4C1346.78 3.7998 1367.23 9.56314 1379.77 21.0898C1392.44 32.4898 1399.22 51.4265 1400.1 77.8998C1400.48 88.5398 1400.67 98.4198 1400.67 107.54C1400.67 116.66 1400.48 126.54 1400.1 137.18C1399.22 163.526 1392.44 182.463 1379.77 193.99C1367.23 205.516 1346.78 211.28 1318.4 211.28H1302.06V307.8H1245.06ZM1302.06 161.12H1318.4C1326.38 161.12 1332.4 159.283 1336.45 155.61C1340.51 151.936 1342.72 146.806 1343.1 140.22C1343.48 134.013 1343.74 127.046 1343.86 119.32C1343.99 111.466 1343.99 103.676 1343.86 95.9498C1343.74 88.0965 1343.48 81.0665 1343.1 74.8598C1342.72 68.1465 1340.51 63.0165 1336.45 59.4698C1332.4 55.7965 1326.38 53.9598 1318.4 53.9598H1302.06V161.12Z" fill="white"/>
<path d="M1135.59 311.6C1107.72 311.6 1087.52 305.71 1074.98 293.93C1062.57 282.15 1056.04 262.58 1055.41 235.22C1055.16 222.807 1054.97 209.887 1054.84 196.46C1054.71 183.033 1054.65 169.417 1054.65 155.61C1054.65 141.803 1054.71 128.187 1054.84 114.76C1054.97 101.333 1055.16 88.4133 1055.41 76C1056.04 48.7667 1062.57 29.3233 1074.98 17.67C1087.52 5.89001 1107.72 0 1135.59 0C1163.58 0 1183.66 5.89001 1195.82 17.67C1207.98 29.3233 1214.5 48.7667 1215.39 76C1215.9 88.6667 1216.28 101.713 1216.53 115.14C1216.78 128.567 1216.91 142.183 1216.91 155.99C1216.91 169.67 1216.78 183.223 1216.53 196.65C1216.28 209.95 1215.9 222.807 1215.39 235.22C1214.5 262.58 1207.98 282.15 1195.82 293.93C1183.66 305.71 1163.58 311.6 1135.59 311.6ZM1135.59 265.24C1143.06 265.24 1148.7 263.593 1152.5 260.3C1156.3 256.88 1158.26 252.067 1158.39 245.86C1159.02 232.94 1159.47 218.753 1159.72 203.3C1159.97 187.847 1160.1 171.95 1160.1 155.61C1160.1 139.27 1159.97 123.373 1159.72 107.92C1159.47 92.4667 1159.02 78.28 1158.39 65.36C1158.26 59.28 1156.24 54.5933 1152.31 51.3C1148.38 48.0067 1142.81 46.36 1135.59 46.36C1128.37 46.36 1122.73 48.0067 1118.68 51.3C1114.75 54.5933 1112.66 59.28 1112.41 65.36C1111.9 78.28 1111.46 92.4667 1111.08 107.92C1110.83 123.373 1110.7 139.27 1110.7 155.61C1110.7 171.95 1110.83 187.847 1111.08 203.3C1111.46 218.753 1111.9 232.94 1112.41 245.86C1112.66 252.067 1114.75 256.88 1118.68 260.3C1122.73 263.593 1128.37 265.24 1135.59 265.24Z" fill="white"/>
<path d="M937.342 307.8V53.9598H888.512V3.7998H1043.17V53.9598H994.342V307.8H937.342Z" fill="white"/>
<path d="M796.5 311.6C768.633 311.6 748.747 305.71 736.84 293.93C725.06 282.15 718.6 262.58 717.46 235.22C717.333 231.167 717.27 226.733 717.27 221.92C717.27 216.98 717.397 212.103 717.65 207.29C717.903 202.35 718.347 197.853 718.98 193.8H772.56C772.053 203.047 771.737 212.167 771.61 221.16C771.483 230.153 771.8 238.387 772.56 245.86C773.193 252.067 775.41 256.88 779.21 260.3C783.137 263.593 788.9 265.24 796.5 265.24C803.973 265.24 809.42 263.593 812.84 260.3C816.387 256.88 818.54 252.067 819.3 245.86C819.807 241.553 820.123 237.31 820.25 233.13C820.503 228.823 820.503 224.58 820.25 220.4C820.123 216.093 819.807 211.787 819.3 207.48C818.793 202.16 817.147 197.347 814.36 193.04C811.573 188.733 807.14 185.82 801.06 184.3L769.9 176.32C756.727 172.9 746.277 168.023 738.55 161.69C730.823 155.23 725.187 147.25 721.64 137.75C718.22 128.25 716.32 117.167 715.94 104.5C715.813 98.9267 715.75 93.9867 715.75 89.68C715.75 85.2467 715.813 80.6867 715.94 76C716.7 57.8867 719.74 43.2567 725.06 32.11C730.507 20.9633 738.993 12.8567 750.52 7.79C762.047 2.59667 777.373 0 796.5 0C823.48 0 843.05 5.89001 855.21 17.67C867.37 29.3233 874.02 48.7667 875.16 76C875.413 81.4467 875.413 88.0967 875.16 95.95C875.033 103.803 874.78 111.087 874.4 117.8H819.68C820.06 109.06 820.313 100.32 820.44 91.58C820.567 82.84 820.44 74.1 820.06 65.36C819.933 59.28 817.717 54.5933 813.41 51.3C809.23 48.0067 803.593 46.36 796.5 46.36C788.9 46.36 783.263 48.0067 779.59 51.3C775.917 54.5933 773.7 59.28 772.94 65.36C772.18 71.82 771.8 78.3433 771.8 84.93C771.8 91.5167 772.18 98.04 772.94 104.5C773.573 109.567 775.347 114.19 778.26 118.37C781.173 122.55 785.86 125.4 792.32 126.92L819.3 133.38C833.487 136.8 844.633 141.867 852.74 148.58C860.973 155.167 866.863 163.4 870.41 173.28C874.083 183.033 876.173 194.433 876.68 207.48C876.807 210.393 876.87 213.433 876.87 216.6C876.87 219.767 876.807 222.933 876.68 226.1C876.553 229.267 876.427 232.307 876.3 235.22C875.16 262.58 868.573 282.15 856.54 293.93C844.633 305.71 824.62 311.6 796.5 311.6Z" fill="white"/>
<path d="M548.059 198.36V148.2H694.739V198.36H548.059Z" fill="white"/>
<path d="M396.742 307.8V3.7998H528.222V53.9598H453.742V128.06H524.422V178.22H453.742V257.64H528.222V307.8H396.742Z" fill="white"/>
<path d="M190.414 307.8V3.7998H272.874L295.674 100.7L316.574 257.64H326.454L315.814 134.14L311.254 3.7998H366.354V307.8H279.714L256.914 208.24L241.334 53.5798H230.694L240.574 191.14L245.514 307.8H190.414Z" fill="white"/>
<path d="M80.94 311.6C53.0733 311.6 32.87 305.71 20.33 293.93C7.91667 282.15 1.39333 262.58 0.76 235.22C0.506667 222.807 0.316667 209.887 0.190001 196.46C0.0633336 183.033 0 169.417 0 155.61C0 141.803 0.0633336 128.187 0.190001 114.76C0.316667 101.333 0.506667 88.4133 0.76 76C1.39333 48.7667 7.91667 29.3233 20.33 17.67C32.87 5.89001 53.0733 0 80.94 0C108.933 0 129.01 5.89001 141.17 17.67C153.33 29.3233 159.853 48.7667 160.74 76C161.247 88.6667 161.627 101.713 161.88 115.14C162.133 128.567 162.26 142.183 162.26 155.99C162.26 169.67 162.133 183.223 161.88 196.65C161.627 209.95 161.247 222.807 160.74 235.22C159.853 262.58 153.33 282.15 141.17 293.93C129.01 305.71 108.933 311.6 80.94 311.6ZM80.94 265.24C88.4133 265.24 94.05 263.593 97.85 260.3C101.65 256.88 103.613 252.067 103.74 245.86C104.373 232.94 104.817 218.753 105.07 203.3C105.323 187.847 105.45 171.95 105.45 155.61C105.45 139.27 105.323 123.373 105.07 107.92C104.817 92.4667 104.373 78.28 103.74 65.36C103.613 59.28 101.587 54.5933 97.66 51.3C93.7333 48.0067 88.16 46.36 80.94 46.36C73.72 46.36 68.0833 48.0067 64.03 51.3C60.1033 54.5933 58.0133 59.28 57.76 65.36C57.2533 78.28 56.81 92.4667 56.43 107.92C56.1767 123.373 56.05 139.27 56.05 155.61C56.05 171.95 56.1767 187.847 56.43 203.3C56.81 218.753 57.2533 232.94 57.76 245.86C58.0133 252.067 60.1033 256.88 64.03 260.3C68.0833 263.593 73.72 265.24 80.94 265.24Z" fill="white"/>
</svg>
