<svg width="1181" height="384" viewBox="0 0 1181 384" fill="none" xmlns="http://www.w3.org/2000/svg">
<path d="M1162 311.6C1133 311.6 1112.1 306.344 1099.3 295.83C1086.64 285.317 1080.3 268.027 1080.3 243.96V122.74H1058.64V79.8002H1080.68V15.2002H1138.06V79.8002H1176.44V122.74H1137.3V250.42C1137.3 257.26 1138.89 262.137 1142.05 265.05C1145.35 267.964 1152 269.42 1162 269.42C1164.92 269.42 1167.77 269.357 1170.55 269.23C1173.47 269.104 1176.7 269.04 1180.24 269.04V309.7C1177.58 310.46 1174.73 310.967 1171.69 311.22C1168.65 311.474 1165.42 311.6 1162 311.6Z" fill="white"/>
<path d="M935.301 307.8V79.8003H992.301V108.3H1002.18C1003.32 97.0269 1006.61 89.2369 1012.06 84.9303C1017.51 80.4969 1024.47 78.2803 1032.96 78.2803C1036.25 78.2803 1039.42 78.4069 1042.46 78.6603C1045.5 78.9136 1047.78 79.1669 1049.3 79.4203V122.74H1033.72C1019.15 122.74 1008.96 124.957 1003.13 129.39C997.304 133.824 993.694 139.84 992.301 147.44V307.8H935.301Z" fill="white"/>
<path d="M828.532 311.6C809.912 311.6 795.029 309.067 783.882 304C772.862 298.933 764.756 290.827 759.562 279.68C754.369 268.407 751.266 253.587 750.252 235.22C750.126 230.913 749.936 225.15 749.682 217.93C749.556 210.583 749.492 202.73 749.492 194.37C749.492 186.01 749.556 178.03 749.682 170.43C749.809 162.83 749.999 156.687 750.252 152C751.266 133.887 754.306 119.257 759.372 108.11C764.566 96.9633 772.672 88.8567 783.692 83.79C794.839 78.5967 809.786 76 828.532 76C847.406 76 862.289 78.5967 873.182 83.79C884.202 88.9833 892.246 97.1533 897.312 108.3C902.379 119.447 905.419 134.013 906.432 152C906.686 156.307 906.876 162.133 907.002 169.48C907.129 176.827 907.192 184.68 907.192 193.04C907.192 201.4 907.129 209.317 907.002 216.79C906.876 224.263 906.686 230.407 906.432 235.22C905.419 253.333 902.379 268.027 897.312 279.3C892.246 290.447 884.202 298.617 873.182 303.81C862.289 309.003 847.406 311.6 828.532 311.6ZM828.532 269.04C836.006 269.04 841.326 267.393 844.492 264.1C847.659 260.68 849.306 255.867 849.432 249.66C849.686 240.92 849.876 231.863 850.002 222.49C850.256 212.99 850.382 203.363 850.382 193.61C850.382 183.857 850.256 174.293 850.002 164.92C849.876 155.42 849.686 146.3 849.432 137.56C849.306 131.48 847.659 126.793 844.492 123.5C841.326 120.207 836.006 118.56 828.532 118.56C821.312 118.56 815.992 120.207 812.572 123.5C809.279 126.793 807.506 131.48 807.252 137.56C806.999 146.3 806.809 155.42 806.682 164.92C806.556 174.42 806.492 184.047 806.492 193.8C806.492 203.427 806.556 212.99 806.682 222.49C806.809 231.99 806.999 241.047 807.252 249.66C807.506 255.867 809.279 260.68 812.572 264.1C815.992 267.393 821.312 269.04 828.532 269.04Z" fill="white"/>
<path d="M564.207 383.8V79.8H621.207V104.5H629.187C634.507 95.38 640.08 88.35 645.907 83.41C651.734 78.47 660.6 76 672.507 76C688.34 76 700.627 80.94 709.367 90.82C718.107 100.7 723.047 117.167 724.187 140.22C724.44 146.173 724.63 153.963 724.757 163.59C725.01 173.09 725.137 183.16 725.137 193.8C725.137 204.44 725.01 214.573 724.757 224.2C724.63 233.7 724.44 241.427 724.187 247.38C723.047 270.307 717.6 286.773 707.847 296.78C698.094 306.66 685.3 311.6 669.467 311.6C661.107 311.6 653.76 309.447 647.427 305.14C641.22 300.707 635.14 293.36 629.187 283.1H621.207V383.8H564.207ZM645.907 270.18C651.86 270.18 656.8 268.723 660.727 265.81C664.654 262.897 666.807 258.4 667.187 252.32C667.694 244.847 668.074 236.17 668.327 226.29C668.58 216.41 668.707 206.023 668.707 195.13C668.707 184.237 668.58 173.597 668.327 163.21C668.074 152.823 667.694 143.513 667.187 135.28C666.807 129.2 665.287 124.703 662.627 121.79C659.967 118.877 655.66 117.42 649.707 117.42C644.64 117.42 639.194 118.94 633.367 121.98C627.54 124.893 623.487 128.82 621.207 133.76V253.84C623.867 259.667 627.097 263.847 630.897 266.38C634.824 268.913 639.827 270.18 645.907 270.18Z" fill="white"/>
<path d="M375.691 383.8V79.8H432.691V104.5H440.671C445.991 95.38 451.565 88.35 457.391 83.41C463.218 78.47 472.085 76 483.991 76C499.825 76 512.111 80.94 520.851 90.82C529.591 100.7 534.531 117.167 535.671 140.22C535.925 146.173 536.115 153.963 536.241 163.59C536.495 173.09 536.621 183.16 536.621 193.8C536.621 204.44 536.495 214.573 536.241 224.2C536.115 233.7 535.925 241.427 535.671 247.38C534.531 270.307 529.085 286.773 519.331 296.78C509.578 306.66 496.785 311.6 480.951 311.6C472.591 311.6 465.245 309.447 458.911 305.14C452.705 300.707 446.625 293.36 440.671 283.1H432.691V383.8H375.691ZM457.391 270.18C463.345 270.18 468.285 268.723 472.211 265.81C476.138 262.897 478.291 258.4 478.671 252.32C479.178 244.847 479.558 236.17 479.811 226.29C480.065 216.41 480.191 206.023 480.191 195.13C480.191 184.237 480.065 173.597 479.811 163.21C479.558 152.823 479.178 143.513 478.671 135.28C478.291 129.2 476.771 124.703 474.111 121.79C471.451 118.877 467.145 117.42 461.191 117.42C456.125 117.42 450.678 118.94 444.851 121.98C439.025 124.893 434.971 128.82 432.691 133.76V253.84C435.351 259.667 438.581 263.847 442.381 266.38C446.308 268.913 451.311 270.18 457.391 270.18Z" fill="white"/>
<path d="M236.603 311.6C220.896 311.6 208.293 306.66 198.793 296.78C189.293 286.773 184.543 270.306 184.543 247.38V79.7998H241.543V252.32C241.543 258.4 243 262.896 245.913 265.81C248.826 268.723 253.196 270.18 259.023 270.18C264.216 270.18 269.663 268.723 275.363 265.81C281.19 262.77 285.243 258.78 287.523 253.84V79.7998H344.523V307.8H287.523V283.1H279.923C274.096 293.36 267.763 300.706 260.923 305.14C254.21 309.446 246.103 311.6 236.603 311.6Z" fill="white"/>
<path d="M80.75 311.6C52.8833 311.6 32.9967 305.71 21.09 293.93C9.31 282.15 2.85 262.58 1.71 235.22C1.58333 231.167 1.52 226.733 1.52 221.92C1.52 216.98 1.64667 212.103 1.9 207.29C2.15333 202.35 2.59667 197.853 3.23 193.8H56.81C56.3033 203.047 55.9867 212.167 55.86 221.16C55.7333 230.153 56.05 238.387 56.81 245.86C57.4433 252.067 59.66 256.88 63.46 260.3C67.3867 263.593 73.15 265.24 80.75 265.24C88.2233 265.24 93.67 263.593 97.09 260.3C100.637 256.88 102.79 252.067 103.55 245.86C104.057 241.553 104.373 237.31 104.5 233.13C104.753 228.823 104.753 224.58 104.5 220.4C104.373 216.093 104.057 211.787 103.55 207.48C103.043 202.16 101.397 197.347 98.61 193.04C95.8233 188.733 91.39 185.82 85.31 184.3L54.15 176.32C40.9767 172.9 30.5267 168.023 22.8 161.69C15.0733 155.23 9.43667 147.25 5.89 137.75C2.47 128.25 0.57 117.167 0.190001 104.5C0.0633336 98.9267 0 93.9867 0 89.68C0 85.2467 0.0633336 80.6867 0.190001 76C0.950001 57.8867 3.99 43.2567 9.31 32.11C14.7567 20.9633 23.2433 12.8567 34.77 7.79C46.2967 2.59667 61.6233 0 80.75 0C107.73 0 127.3 5.89001 139.46 17.67C151.62 29.3233 158.27 48.7667 159.41 76C159.663 81.4467 159.663 88.0967 159.41 95.95C159.283 103.803 159.03 111.087 158.65 117.8H103.93C104.31 109.06 104.563 100.32 104.69 91.58C104.817 82.84 104.69 74.1 104.31 65.36C104.183 59.28 101.967 54.5933 97.66 51.3C93.48 48.0067 87.8433 46.36 80.75 46.36C73.15 46.36 67.5133 48.0067 63.84 51.3C60.1667 54.5933 57.95 59.28 57.19 65.36C56.43 71.82 56.05 78.3433 56.05 84.93C56.05 91.5167 56.43 98.04 57.19 104.5C57.8233 109.567 59.5967 114.19 62.51 118.37C65.4233 122.55 70.11 125.4 76.57 126.92L103.55 133.38C117.737 136.8 128.883 141.867 136.99 148.58C145.223 155.167 151.113 163.4 154.66 173.28C158.333 183.033 160.423 194.433 160.93 207.48C161.057 210.393 161.12 213.433 161.12 216.6C161.12 219.767 161.057 222.933 160.93 226.1C160.803 229.267 160.677 232.307 160.55 235.22C159.41 262.58 152.823 282.15 140.79 293.93C128.883 305.71 108.87 311.6 80.75 311.6Z" fill="white"/>
</svg>
