<svg width="67" height="55" viewBox="0 0 67 55" fill="none" xmlns="http://www.w3.org/2000/svg">
<path d="M21.2013 32.3208L36.4931 13.5021H28.1511C24.4103 13.5021 21.8439 14.6419 19.5681 17.3079L11.5167 27.2107V0H3.44239C1.54142 0 0 1.54145 0 3.4501V54.211H8.07813C9.97909 54.211 11.5205 52.6695 11.5205 50.7647V37.2626L18.0649 45.295L23.6301 52.1493C24.7508 53.5569 26.2348 54.211 27.7495 54.211H39.0252L31.735 45.2644L21.2013 32.3208ZM56.5469 44.6295C54.8525 44.6295 53.4603 43.241 53.4603 41.5351V0H45.3783C43.4773 0 41.9321 1.54145 41.9321 3.44245V43.7C41.9321 49.9194 46.2312 54.211 52.4543 54.211H61.3318C63.2328 54.211 64.7819 52.6695 64.7819 50.7647V44.6295H56.5469Z" fill="black"/>
<path d="M12.617 25.8208L12.6361 25.8017C12.6285 25.8093 12.6208 25.8131 12.6094 25.817L12.617 25.8208ZM66.4406 18.1441L66.433 10.498L65.7254 11.2554C65.6986 11.2669 63.5376 13.4777 57.3221 13.4777H27.9471C23.3075 13.4777 21.1121 15.3672 19.4559 17.4097L18.5494 18.5228C18.5265 18.5572 18.492 18.5878 18.4653 18.6184L12.6361 25.8017C14.759 24.199 17.6582 23.2389 20.6263 23.2389H57.3221C61.7743 23.2389 66.0505 21.9308 66.4024 18.5955C66.4483 18.3201 66.4406 18.1441 66.4406 18.1441Z" fill="#E60012"/>
</svg>
