<svg width="295" height="41" viewBox="0 0 295 41" fill="none" xmlns="http://www.w3.org/2000/svg">
<path d="M182.754 12.447H188.354C189.735 12.1399 189.835 8.5452 189.835 8.5452C189.392 0.877169 180.008 0.6875 180.008 0.6875C169.838 0.93136 169.983 8.64455 169.983 8.64455C169.983 8.64455 169.486 15.1294 177.551 16.4029H191.605V17.9835H172.43V23.1406C172.43 23.1406 172.9 25.5973 175.086 25.6515H197.431V23.1948H178.193V20.964H197.458V1.87067H191.596V13.5669H179.945C179.945 13.5669 175.338 13.4856 175.411 8.50004C175.411 8.50004 175.393 4.17379 179.918 4.17379C179.918 4.17379 184.027 4.02928 184.47 8.50004C184.47 8.50004 184.47 11.3993 182.754 12.447Z" fill="#54565A"/>
<path d="M201.619 8.00152C201.619 10.8465 204.22 10.9459 204.22 10.9459H218.13V13.3122H199.695V16.2566H204.753C203.082 17.8824 203.326 20.4835 203.326 20.4835C204.455 28.4857 214.878 28.1967 214.878 28.1967C220.378 28.1967 223.476 25.7942 223.476 25.7942C229.022 21.5131 226.132 17.3766 226.132 17.3766H219.837C221.408 18.7584 221.318 20.3842 221.318 20.3842C221.462 24.7465 215.51 25.0536 215.51 25.0536C208.971 25.0536 209.224 20.1855 209.224 20.1855C209.224 17.2411 212.277 16.4011 212.277 16.4011H228.101V13.3574H223.973V9.1305C223.973 7.80282 222.799 7.94733 222.799 7.94733H207.562V4.75909H227.514V1.91406H201.61L201.619 8.00152Z" fill="#54565A"/>
<path d="M243.052 1.87229C243.594 7.02947 240.496 11.7531 240.496 11.7531C245.355 13.6227 247.423 18.238 247.423 18.238V4.96118H243.964V1.71875H251.75C252.834 1.71875 252.725 2.70322 252.725 2.70322V25.9963H247.622V20.5411H243.097C240.595 14.5981 238.139 14.7878 238.139 14.7878C234.408 18.6263 230.57 19.4121 230.57 19.4121V16.0161C238.084 11.8344 237.841 5.06053 237.841 5.06053H230.516V1.87229H243.052Z" fill="#54565A"/>
<path d="M259.798 1.67188H254.641V26.0398H259.798V1.67188Z" fill="#54565A"/>
<path d="M284.186 20.5368V26.4346H290.084V17.3215H271.56C271.56 17.3215 267.035 16.906 267.035 10.656C267.035 10.656 267.035 4.71303 272.002 4.71303C272.002 4.71303 277.159 4.61368 277.114 10.656C277.114 10.656 277.214 15.0274 274.703 16.3189H280.357C280.357 16.3189 282.669 13.9887 282.181 9.61732C282.181 9.61732 281.504 1.11836 272.011 0.820312C272.011 0.820312 262.771 0.820312 262.076 10.2586C262.076 10.2586 261.832 14.7384 264.533 17.3847C264.533 17.3847 266.456 19.7962 270.53 20.5458L284.186 20.5368Z" fill="#54565A"/>
<path d="M284.264 16.3456V2.74367C284.264 2.74367 284.156 1.27148 285.438 1.27148H294.154V4.55907H290.026V7.45829H294.154V10.8904H290.072V16.3095L284.264 16.3456Z" fill="#54565A"/>
<path d="M117.564 1.64453V13.413L108.036 1.64453H105.091H97.5766H97.4141V25.8318H105.091V10.9293L117.167 25.8318H117.564H124.447H125.142V1.64453H117.564Z" fill="#54565A"/>
<path d="M8.44487 1.79492H0V25.8286H8.44487V1.79492Z" fill="#54565A"/>
<path d="M51.3618 1.80395H42.3028V1.79492H33.9844V25.8286H42.3028V7.774H46.9904C46.9904 7.774 53.0508 7.59336 53.0508 13.8163C53.0508 20.0392 47.5775 20.1205 47.5775 20.1205H43.3144V25.8467H51.1902C61.8208 25.8467 61.9292 13.7621 61.9292 13.7621C61.9292 3.02325 51.3618 1.80395 51.3618 1.80395Z" fill="#54565A"/>
<path d="M22.3655 1.79492H13.9297V19.9489V25.8286H22.3655H32.4813V19.9489H22.3655V1.79492Z" fill="#54565A"/>
<path d="M72.2334 13.5958C72.2334 9.48635 75.4939 6.1536 79.5312 6.1536C83.5594 6.1536 86.829 9.48635 86.829 13.5958C86.829 17.7053 83.5594 21.0381 79.5312 21.0381C75.4939 21.0381 72.2334 17.7053 72.2334 13.5958ZM63.1562 14.3635C63.1562 27.55 79.6396 27.2339 79.6396 27.2339C79.6396 27.2339 95.9061 28.2455 95.9061 13.7855C95.9061 -0.674472 79.8021 0.0209799 79.8021 0.0209799C76.2255 0.0209799 63.1562 1.18609 63.1562 14.3635Z" fill="#54565A"/>
<path d="M148.75 9.61891H157.195V8.4538C157.195 8.4538 156.563 0 142.789 0C129.024 0 126.848 8.23703 126.848 13.5026C126.848 18.7591 129.34 26.5175 142.103 26.5175C142.103 26.5175 148.38 27.0504 155.66 23.0673V11.4795H141.949V16.5825H147.54V19.6081C147.54 19.6081 147.431 20.9539 143.656 20.9539C139.881 20.9539 135.898 19.021 135.898 13.3852C135.898 7.74932 139.086 5.68103 143.132 5.68103C143.114 5.69006 148.75 5.74425 148.75 9.61891Z" fill="#54565A"/>
<path d="M51.5977 40.0765C51.5977 40.0765 59.889 29.0938 80.1657 29.0938C100.442 29.0938 107.876 40.0765 107.876 40.0765H51.5977Z" fill="#EA0029"/>
</svg>
