<svg width="120" height="39" viewBox="0 0 120 39" fill="none" xmlns="http://www.w3.org/2000/svg">
<path d="M31.7539 7.02963L31.9301 7.91069C32.4588 7.73448 33.1636 7.55827 33.6922 7.38206C50.7847 0.862233 66.1151 -0.195035 68.7583 5.26752C69.8156 7.55827 68.7583 10.5539 65.9389 13.9019C69.9918 9.84902 71.7539 6.14858 70.5204 3.50541C67.5248 -2.30957 50.2561 -0.723669 31.7539 7.02963Z" fill="black"/>
<path d="M62.4145 5.44336C62.4145 5.44336 57.4806 7.5579 52.3704 13.7253C52.3704 13.7253 47.9651 19.1879 45.4982 22.8883C45.4982 22.8883 44.2647 8.61517 44.4409 7.38169C44.4409 7.38169 44.6171 6.85305 43.9123 7.02926C43.9123 7.02926 41.7977 7.5579 40.7405 7.38169C40.7405 7.38169 34.2206 7.38169 30.6964 9.49622C30.6964 9.49622 31.0488 8.43895 31.0488 7.91032C31.0488 7.91032 28.9343 7.73411 26.8198 7.38169C26.8198 7.38169 22.9431 6.67684 19.4189 8.43895C19.4189 8.43895 13.2515 11.4345 14.8374 17.2495C14.8374 17.2495 15.5422 19.5403 18.8902 21.6548C18.8902 21.6548 22.4145 24.4742 22.062 26.7649C22.062 26.7649 21.8858 29.4081 17.833 31.1702C17.833 31.1702 12.5466 33.2848 11.4894 29.2319C11.4894 29.2319 11.1369 25.7077 7.61271 26.9412C7.61271 26.9412 6.0268 27.646 6.37923 29.7605C6.37923 29.7605 6.55544 32.2275 10.7845 33.8134C10.7845 33.8134 17.3043 36.1042 23.8242 31.1702C23.8242 31.1702 24.3528 33.1086 27.7008 32.7561C27.7008 32.7561 32.1061 32.7561 35.1017 28.7033C38.0973 24.6504 39.507 21.1262 40.5642 16.016L41.7977 33.1086H42.1502C42.1502 33.1086 52.1942 17.6019 54.3087 16.1923C54.3087 16.1923 50.4321 30.4654 49.1986 32.0513C49.1986 32.0513 53.2515 31.1702 54.485 31.5227C54.485 31.5227 58.3616 32.0513 59.5951 31.5227C59.5951 31.5227 60.1237 31.3464 60.4761 29.9368C60.4761 29.9368 60.8286 28.8795 59.9475 29.0557C59.9475 29.0557 57.6568 29.5843 56.5995 29.4081C56.5995 29.4081 55.5422 29.2319 55.1898 29.2319C55.1898 29.2319 61.181 7.73411 62.4145 5.97199C62.5907 5.97199 62.9431 5.44336 62.4145 5.44336ZM35.2779 22.7121C33.8682 26.2363 31.4013 27.9984 31.4013 27.9984C29.8153 29.2319 28.7581 28.8795 28.7581 28.8795C27.3484 28.5271 25.7625 28.3508 25.7625 28.3508C27.7008 25.3553 26.1149 22.3597 26.1149 22.3597C25.5863 20.95 22.5907 18.1306 22.5907 18.1306C22.2383 18.1306 19.9475 15.8398 19.9475 15.8398C18.5378 14.0777 19.4189 12.668 19.4189 12.668C22.2383 8.43895 25.7625 9.67243 25.7625 9.67243C28.2294 10.9059 26.8198 13.5491 26.8198 13.5491C26.4673 14.2539 26.2911 15.4874 26.2911 15.4874C26.1149 19.0116 28.0532 20.0689 28.0532 20.0689C30.6964 21.1262 31.225 19.1879 31.225 19.1879C31.5775 17.9544 29.9916 16.1923 29.9916 16.1923C28.7581 14.6064 30.6964 12.668 30.6964 12.668C33.8682 9.67243 38.6259 9.67243 38.6259 9.67243C37.7449 17.7782 35.2779 22.7121 35.2779 22.7121Z" fill="black"/>
<path d="M2.14943 32.9332C1.09216 30.6424 2.14943 27.6468 4.96881 24.2988C0.915948 28.3517 -0.846166 32.0521 0.387314 34.6953C3.38291 40.6865 21.0041 38.9244 39.8587 30.8187C40.2111 30.6424 40.3873 30.6424 40.7397 30.4662V29.409C22.0613 37.1623 4.96881 38.7482 2.14943 32.9332Z" fill="black"/>
<path d="M76.3353 20.9496L76.6877 24.2977H76.3353C75.9829 23.4166 75.6305 22.888 75.278 22.3593C74.5732 21.8307 73.8683 21.4783 72.8111 21.4783C71.4014 21.4783 70.5203 22.0069 69.8155 23.0642C69.2868 23.9452 68.9344 25.0025 68.9344 26.236C68.9344 27.2933 69.1106 28.1743 69.4631 29.0554C69.8155 29.9364 70.3441 30.4651 71.049 30.8175C71.7538 31.1699 72.2824 31.3461 72.9873 31.3461C73.3397 31.3461 73.6921 31.3461 74.0446 31.1699C74.397 30.9937 74.7494 30.9937 75.1018 30.8175V27.8219C75.1018 27.2933 75.1018 26.9408 74.9256 26.7646C74.9256 26.5884 74.7494 26.4122 74.5732 26.4122C74.397 26.4122 74.0446 26.236 73.6921 26.236V25.8836H77.745V26.236H77.5688C77.2164 26.236 76.8639 26.4122 76.6877 26.5884C76.5115 26.7646 76.5115 27.117 76.5115 27.6457V30.8175C75.9829 31.1699 75.278 31.3461 74.7494 31.5223C74.2208 31.6985 73.5159 31.6985 72.8111 31.6985C70.6965 31.6985 69.2868 30.9937 68.2296 29.7602C67.5247 28.703 66.9961 27.6457 66.9961 26.4122C66.9961 25.5311 67.1723 24.6501 67.7009 23.769C68.2296 22.7118 68.9344 22.0069 69.8155 21.4783C70.5203 20.9496 71.5776 20.7734 72.6349 20.7734C72.9873 20.7734 73.3397 20.7734 73.6921 20.9496C74.0446 20.9496 74.397 21.1259 75.1018 21.3021C75.4542 21.4783 75.6305 21.4783 75.6305 21.4783C75.8067 21.4783 75.8067 21.4783 75.8067 21.3021C75.8067 21.1259 75.9829 20.9496 75.9829 20.7734H76.3353V20.9496Z" fill="black"/>
<path d="M88.8461 31.6977H86.0267L82.5025 26.7638C82.3263 26.7638 81.9739 26.7638 81.7977 26.7638H81.6215H81.4452V29.9356C81.4452 30.6404 81.4452 30.9928 81.6215 31.1691C81.7977 31.3453 82.1501 31.5215 82.5025 31.5215H82.8549V31.6977H78.2734V31.3453H78.6259C79.1545 31.3453 79.3307 31.1691 79.5069 30.9928C79.6831 30.8166 79.6831 30.4642 79.6831 29.9356V23.0633C79.6831 22.3585 79.6831 22.0061 79.5069 21.8298C79.3307 21.6536 78.9783 21.4774 78.6259 21.4774H78.2734V21.125H82.1501C83.2074 21.125 84.0884 21.125 84.617 21.3012C85.1457 21.4774 85.6743 21.8298 86.0267 22.1823C86.3792 22.5347 86.5554 23.0633 86.5554 23.7682C86.5554 24.473 86.3792 25.0017 85.8505 25.5303C85.4981 26.0589 84.7933 26.4113 83.9122 26.5876L86.0267 29.5831C86.5554 30.288 86.9078 30.8166 87.2602 30.9928C87.6126 31.1691 88.1413 31.3453 88.6699 31.3453V31.6977H88.8461ZM81.4452 26.4113C81.6215 26.4113 81.6215 26.4113 81.6215 26.4113H81.7977C82.8549 26.4113 83.5598 26.2351 84.0884 25.7065C84.617 25.3541 84.7933 24.6492 84.7933 24.1206C84.7933 23.4157 84.617 22.8871 84.2646 22.5347C83.9122 22.1823 83.3836 22.0061 82.6787 22.0061C82.3263 22.0061 81.9739 22.0061 81.4452 22.1823V26.4113Z" fill="black"/>
<path d="M94.4856 20.9492C95.8953 20.9492 96.9525 21.4779 98.0098 22.5351C99.0671 23.5924 99.5957 24.8259 99.5957 26.4118C99.5957 27.9977 99.0671 29.4074 98.0098 30.4646C96.9525 31.5219 95.719 32.0505 94.3094 32.0505C92.8997 32.0505 91.6662 31.5219 90.6089 30.4646C89.5516 29.4074 89.1992 28.1739 89.1992 26.4118C89.1992 24.8259 89.7279 23.4162 90.9613 22.3589C92.0186 21.4779 93.2521 20.9492 94.4856 20.9492ZM94.3094 21.4779C93.4283 21.4779 92.5472 21.8303 92.0186 22.5351C91.3138 23.4162 90.9613 24.6497 90.9613 26.4118C90.9613 28.1739 91.3138 29.4074 92.0186 30.4646C92.5472 31.1695 93.2521 31.5219 94.3094 31.5219C95.3666 31.5219 96.0715 31.1695 96.7763 30.2884C97.4812 29.5836 97.6574 28.3501 97.6574 26.588C97.6574 24.8259 97.3049 23.4162 96.6001 22.5351C96.2477 21.8303 95.3666 21.4779 94.3094 21.4779Z" fill="black"/>
<path d="M107.878 21.4774V21.125H111.578V21.4774H111.05C110.697 21.4774 110.345 21.6536 110.169 22.0061C109.992 22.1823 109.992 22.5347 109.992 23.0633V27.2924C109.992 28.3497 109.816 29.2307 109.64 29.7594C109.464 30.288 108.935 30.8166 108.407 31.1691C107.878 31.5215 106.997 31.8739 105.94 31.8739C104.706 31.8739 104.001 31.6977 103.296 31.3453C102.768 30.9928 102.239 30.4642 102.063 29.7594C101.887 29.2307 101.887 28.3497 101.887 27.1162V23.0633C101.887 22.3585 101.71 22.0061 101.534 21.8298C101.358 21.6536 101.006 21.4774 100.653 21.4774H100.301V21.125H104.882V21.4774H104.53C104.177 21.4774 103.825 21.6536 103.649 21.8298C103.473 22.0061 103.473 22.3585 103.473 23.0633V27.6448C103.473 27.9972 103.473 28.5259 103.649 29.0545C103.649 29.5831 103.825 29.9356 104.001 30.288C104.177 30.6404 104.53 30.8166 104.882 30.9928C105.235 31.1691 105.763 31.3453 106.292 31.3453C106.997 31.3453 107.525 31.1691 108.054 30.8166C108.583 30.4642 108.935 30.1118 109.111 29.5831C109.288 29.0545 109.464 28.3497 109.464 27.1162V22.8871C109.464 22.1823 109.464 21.8298 109.288 21.6536C109.111 21.4774 108.759 21.3012 108.407 21.3012H107.878V21.4774Z" fill="black"/>
<path d="M114.926 26.7638V29.9356C114.926 30.6404 114.926 30.9928 115.102 31.1691C115.278 31.3453 115.631 31.5215 115.983 31.5215H116.335V31.6977H111.754V31.3453H112.106C112.635 31.3453 112.811 31.1691 112.987 30.9928C113.164 30.8166 113.164 30.4642 113.164 29.9356V23.0633C113.164 22.3585 113.164 22.0061 112.987 21.8298C112.811 21.6536 112.459 21.4774 112.106 21.4774H111.754V21.125H115.631C116.512 21.125 117.393 21.3012 117.921 21.4774C118.45 21.6536 118.979 22.0061 119.331 22.5347C119.683 23.0633 119.86 23.592 119.86 24.1206C119.86 25.0017 119.507 25.7065 118.979 26.2351C118.45 26.7638 117.569 27.1162 116.512 27.1162C116.335 27.1162 115.983 27.1162 115.631 27.1162C115.631 26.94 115.278 26.94 114.926 26.7638ZM114.926 26.4113C115.278 26.4113 115.454 26.5876 115.631 26.5876C115.807 26.5876 115.983 26.5876 116.159 26.5876C116.688 26.5876 117.216 26.4113 117.569 25.8827C117.921 25.5303 118.098 25.0017 118.098 24.2968C118.098 23.7682 117.921 23.4157 117.745 23.0633C117.569 22.7109 117.216 22.3585 116.864 22.1823C116.512 22.0061 116.159 21.8298 115.631 21.8298C115.278 21.8298 115.102 21.8298 114.573 22.0061V26.4113H114.926Z" fill="black"/>
</svg>
