<svg width="190" height="51" viewBox="0 0 190 51" fill="none" xmlns="http://www.w3.org/2000/svg">
<path d="M60.7812 12.1758H78.8859V18.9826H68.4306V22.1409H77.8332V28.3163H68.4306V31.579H78.8859V38.3859H60.7812V12.1758Z" fill="#D51030"/>
<path d="M80.5586 25.2208C80.5586 23.0452 82.3128 21.291 84.4884 21.291C86.6639 21.291 88.4181 23.0452 88.4181 25.2208C88.4181 27.3964 86.6639 29.1506 84.4884 29.1506C82.3128 29.1495 80.5586 27.3952 80.5586 25.2208Z" fill="#D51030"/>
<path d="M90.8633 12.1758H98.5116V31.4734H108.792V38.3859H90.8633V12.1758Z" fill="#D51030"/>
<path d="M129.756 38.3847L128.038 33.2266H119.371L117.723 38.3847H109.793L119.231 12.1758H128.108L137.721 38.3847H129.756ZM121.335 27.0867H126.002L123.651 19.9297L121.335 27.0867Z" fill="#D51030"/>
<path d="M162.686 38.3847H155.387L145.949 24.3153H145.915V38.3847H138.652V12.1758H145.95L155.389 25.9995H155.423V12.1758H162.686V38.3847Z" fill="#D51030"/>
<path d="M189.388 25.2981C189.388 33.1921 183.87 38.3859 175.309 38.3859H166.199V12.1758H175.309C183.87 12.1758 189.388 17.4029 189.388 25.2981ZM173.849 31.4734H175.144C179.109 31.4734 181.67 29.2278 181.67 25.2981C181.67 21.3338 179.109 19.0882 175.144 19.0882H173.849V31.4734Z" fill="#D51030"/>
<path d="M25.325 0C11.3613 0 0 11.3614 0 25.3252C0 39.289 11.3613 50.6504 25.325 50.6504C36.2482 50.6504 45.9075 43.6757 49.3581 33.2948L49.4927 32.8913H42.149L42.0667 33.0691C39.0452 39.5736 32.4741 43.7768 25.325 43.7768C16.2359 43.7768 8.65991 37.1701 7.14804 28.5068H16.276V38.3863H32.9566L35.1288 32.1565H22.9871V28.5079L50.4465 28.509L50.4776 28.2367C50.5921 27.2417 50.6499 26.2623 50.6499 25.3252C50.651 11.3614 39.2897 0 25.325 0ZM22.9871 22.1436V18.4072H32.9599L35.1321 12.1773H16.2771V22.1436H7.14804C8.65991 13.4802 16.2359 6.87352 25.325 6.87352C34.225 6.87352 41.9755 13.4135 43.5019 22.1436H22.9871Z" fill="#D51030"/>
</svg>
