<svg width="240" height="48" viewBox="0 0 240 48" fill="none" xmlns="http://www.w3.org/2000/svg">
<path d="M58.408 10.6686V7.10938H63.466V10.6686H70.3973V14.0406H66.6507C68.3367 15.9139 69.2733 18.7238 69.2733 21.9084C69.2733 28.0903 65.714 32.7735 60.8434 32.7735C55.7854 32.5862 52.4134 28.0903 52.4134 21.7211C52.4134 18.5365 53.3501 15.7265 55.0361 13.8532H51.6641V10.6686H58.408ZM60.8434 14.0406C58.7827 14.0406 57.284 17.0378 57.284 21.9084C57.284 26.4043 58.7827 29.4016 60.8434 29.4016C62.904 29.4016 64.4027 26.4043 64.4027 21.9084C64.4027 16.8505 62.904 14.0406 60.8434 14.0406ZM78.6399 20.5971V40.4541H73.582V7.10938H78.6399V17.2252H83.3233V20.5971H78.6399Z" fill="#008E71"/>
<path d="M92.5021 27.5283H100.745C102.993 27.5283 104.679 27.7156 106.739 26.5917V7.10938H111.61V17.2252H116.293V20.5971H111.985V40.4541H106.927V29.7763C105.241 30.5256 102.993 30.7129 100.745 30.7129H89.8795C87.6315 30.7129 86.1328 28.6523 86.1328 26.217V8.60801H91.0035V26.217C91.0035 26.9663 91.5655 27.5283 92.5021 27.5283Z" fill="#008E71"/>
<path d="M117.234 25.4449H129.598V20.387H134.656V25.4449H147.02V28.8169H125.852V35.5607C125.852 36.4974 126.414 37.0594 127.35 37.0594H143.274V40.4313H124.54C122.48 40.4313 120.981 38.3707 120.981 36.1227V28.8169H117.234V25.4449ZM134.656 7.83594V9.5219C134.656 14.7671 138.778 18.3264 143.648 18.8884V22.2603C138.216 22.073 132.97 19.0757 132.034 16.4531C130.91 19.0757 126.039 22.073 120.606 22.2603V18.8884C125.477 18.3264 129.598 14.7671 129.598 9.5219V7.83594H134.656Z" fill="#008E71"/>
<path d="M153.941 10.6686V7.10938H158.999V10.6686H164.431V14.0406H161.621C162.933 15.9139 163.869 18.5365 163.869 21.9084C163.869 28.6523 160.872 32.7735 156.376 32.7735C152.255 32.7735 148.883 28.6523 148.883 21.9084C148.883 18.7238 149.819 15.9139 151.318 14.0406H148.695V10.6686H153.941ZM156.376 14.0406C155.065 14.0406 153.753 16.6632 153.753 21.9084C153.753 27.1537 155.065 29.4016 156.376 29.4016C157.5 29.4016 158.999 26.9663 158.999 21.9084C158.999 16.4759 157.875 14.0406 156.376 14.0406ZM170.801 20.7844V40.4541H166.117V7.10938H170.801V17.4125H173.236V7.10938H177.919V40.2667H173.236V20.7844H170.801Z" fill="#008E71"/>
<path d="M190.141 15.0137H202.692V8.64453H207.562V27.5648H198.758V32.6227H211.122V35.9947H181.336V32.6227H193.7V27.5648H188.829C186.769 27.5648 185.083 25.5042 185.083 23.0689V8.64453H189.953V15.0137H190.141ZM190.141 18.3857V22.6943C190.141 23.6309 190.703 24.1929 191.639 24.1929H202.692V18.3857H190.141Z" fill="#008E71"/>
<path d="M218.783 9.93231V6.37305H223.841V9.93231H230.772V13.1169H227.4C228.149 13.8662 228.711 14.9902 229.086 16.3015H234.706V7.12237H239.577V27.1666H234.706V19.6735H229.273C228.711 24.1694 224.965 26.6047 221.218 26.6047C216.91 26.6047 212.976 23.6074 212.976 18.5495C212.976 16.3015 213.725 14.6156 215.036 13.3042H211.852V9.93231H218.783ZM221.218 13.4916C219.532 13.4916 218.034 15.5522 218.034 18.5495C218.034 21.3594 219.345 23.4201 221.218 23.2327C223.279 23.2327 224.403 20.7974 224.403 18.5495C224.403 15.5522 223.092 13.4916 221.218 13.4916ZM239.764 28.6653V40.8417H221.406C219.532 40.8417 218.034 38.7811 218.034 36.3458V28.8526H239.764V28.6653ZM223.092 31.8499V35.9711C223.092 36.9078 223.654 37.2825 224.59 37.2825H234.893V31.8499H223.092Z" fill="#008E71"/>
<path d="M18.1484 4.49591C18.1484 6.9312 20.2091 8.99183 22.6444 8.99183C25.0797 8.99183 27.1404 6.9312 27.1404 4.49591C27.1404 4.12125 27.1404 3.74659 26.9531 3.37193C26.3911 2.62262 26.0164 2.24796 26.0164 1.31131C26.2037 0 24.5177 0 23.5811 0C22.6444 0 21.5204 0.18733 20.5838 0.561989C20.0218 0.936648 19.2724 1.49864 18.8978 2.06063C18.5231 2.80995 18.1484 3.55926 18.1484 4.49591Z" fill="#D80C18"/>
<path d="M45.1003 10.1527C44.913 9.59072 44.1637 9.59072 43.0397 9.77805C41.1663 10.1527 36.1084 11.2767 27.6784 11.464C23.9317 11.6514 19.8104 11.6514 15.5018 11.2767C12.1298 10.902 5.57314 9.96538 4.26182 9.77805C3.51249 9.77805 1.63916 9.59072 0.88983 10.34C-0.421498 11.2767 -0.0468331 12.7753 0.515165 14.0866C0.515165 14.0866 2.01383 16.7093 5.76048 17.2712C11.0058 18.2079 19.2484 17.8332 21.8711 17.6459C27.8657 17.0839 32.549 16.1473 36.1084 15.2106C36.1084 15.2106 40.979 13.8993 43.4143 12.4007C44.351 12.026 45.6623 10.902 45.1003 10.1527Z" fill="#008E71"/>
<path d="M27.2888 21.0301C24.2915 19.3441 20.7322 19.3441 17.7348 21.0301C13.0515 23.6527 11.3655 29.6473 14.1755 34.5178C16.4235 38.0771 19.6082 37.3278 20.3575 36.3911C21.6688 35.0798 21.1068 33.9558 20.5448 33.0192C19.4208 31.7079 19.2335 30.5839 19.2335 30.0219C19.2335 28.1486 20.7322 26.4627 22.7928 26.4627C23.7295 26.4627 24.8535 26.8373 25.4155 27.774C26.3521 28.8979 26.3521 30.3966 26.3521 31.7079C25.9775 39.2011 22.9801 45.5703 22.7928 45.9449C22.6055 46.1323 22.4181 47.0689 22.9801 47.4436C23.5421 47.6309 24.1041 47.4436 24.6661 46.8816C25.9775 45.7576 28.7875 42.3857 30.0988 39.0137C30.8481 37.1405 32.7214 32.4572 32.1594 27.774C31.5974 24.2147 29.3495 21.9667 27.2888 21.0301Z" fill="#008E71"/>
</svg>
