<svg width="32" height="22" viewBox="0 0 32 22" fill="none" xmlns="http://www.w3.org/2000/svg">
<path d="M31.3263 3.44323C30.963 2.08542 29.8733 1.01979 28.4965 0.658854C26.0066 0 16 0 16 0C16 0 5.99341 0 3.49762 0.658854C2.12083 1.01979 1.03698 2.08542 0.667887 3.44323C1.11745e-07 5.90104 0 11.0229 0 11.0229C0 11.0229 1.11745e-07 16.1448 0.667887 18.6026C1.03698 19.9547 2.12083 20.9802 3.49762 21.3411C5.99341 22 16 22 16 22C16 22 26.0066 22 28.5024 21.3411C29.8792 20.9802 30.963 19.9547 31.3321 18.6026C32 16.1448 32 11.0229 32 11.0229C32 11.0229 32 5.90104 31.3321 3.44323H31.3263ZM12.725 15.675V6.37083L21.0853 11.0229L12.725 15.675Z" fill="white"/>
</svg>
