<svg width="32" height="32" viewBox="0 0 32 32" fill="none" xmlns="http://www.w3.org/2000/svg">
<path d="M16.0036 7.7956C11.4704 7.78132 7.78673 11.4515 7.77245 15.9857C7.75817 20.5199 11.4276 24.2044 15.9607 24.2187C20.4939 24.233 24.1776 20.5628 24.1919 16.0286C24.2061 11.4944 20.5368 7.80988 16.0036 7.7956ZM15.9607 10.6804C18.902 10.6661 21.2935 13.0438 21.3078 15.9857C21.322 18.9276 18.9448 21.3196 16.0036 21.3339C13.0624 21.3482 10.6708 18.9704 10.6566 16.0286C10.6423 13.0867 13.0195 10.6946 15.9607 10.6804ZM22.6284 7.46C22.6284 6.40321 23.4851 5.54636 24.5417 5.54636C25.5982 5.54636 26.4549 6.40321 26.4549 7.46C26.4549 8.51679 25.5982 9.37365 24.5417 9.37365C23.4851 9.37365 22.6284 8.51679 22.6284 7.46ZM31.8876 9.40221C31.7662 6.83878 31.1808 4.56811 29.3033 2.69731C27.4329 0.826509 25.1627 0.240991 22.5999 0.112462C19.9585 -0.0374874 12.0415 -0.0374874 9.40011 0.112462C6.8444 0.23385 4.57423 0.819368 2.69671 2.69017C0.819186 4.56097 0.240937 6.83164 0.112437 9.39507C-0.0374791 12.037 -0.0374791 19.9558 0.112437 22.5978C0.233798 25.1612 0.819186 27.4319 2.69671 29.3027C4.57423 31.1735 6.83726 31.759 9.40011 31.8875C12.0415 32.0375 19.9585 32.0375 22.5999 31.8875C25.1627 31.7661 27.4329 31.1806 29.3033 29.3027C31.1737 27.4319 31.7591 25.1612 31.8876 22.5978C32.0375 19.9558 32.0375 12.0442 31.8876 9.40221ZM28.4752 25.4326C27.9184 26.8321 26.8404 27.9103 25.434 28.4744C23.3281 29.3098 18.3308 29.117 16.0036 29.117C13.6763 29.117 8.67195 29.3027 6.57312 28.4744C5.1739 27.9174 4.09593 26.8392 3.53196 25.4326C2.69671 23.3261 2.88946 18.3278 2.88946 16C2.88946 13.6722 2.70385 8.66674 3.53196 6.56744C4.08879 5.16791 5.16676 4.0897 6.57312 3.5256C8.67909 2.69017 13.6763 2.88296 16.0036 2.88296C18.3308 2.88296 23.3352 2.69731 25.434 3.5256C26.8332 4.08256 27.9112 5.16077 28.4752 6.56744C29.3104 8.67388 29.1177 13.6722 29.1177 16C29.1177 18.3278 29.3104 23.3333 28.4752 25.4326Z" fill="white"/>
</svg>
