<svg width="1347" height="380" viewBox="0 0 1347 380" fill="none" xmlns="http://www.w3.org/2000/svg">
<path d="M1272.56 307.8C1246.6 307.8 1227.66 302.544 1215.75 292.03C1203.85 281.517 1197.2 264.227 1195.8 240.16C1195.55 235.854 1195.36 229.267 1195.23 220.4C1195.11 211.407 1195.04 201.654 1195.04 191.14C1195.04 180.627 1195.11 170.747 1195.23 161.5C1195.36 152.254 1195.55 145.287 1195.8 140.6C1197.58 116.027 1204.29 98.4835 1215.94 87.9702C1227.72 77.4569 1246.34 72.2002 1271.8 72.2002C1297.26 72.2002 1315.76 77.3302 1327.28 87.5902C1338.81 97.8502 1345.14 114.76 1346.28 138.32C1346.41 141.107 1346.47 146.047 1346.47 153.14C1346.6 160.107 1346.6 167.834 1346.47 176.32C1346.47 184.68 1346.28 192.407 1345.9 199.5H1252.04C1252.04 207.607 1252.11 215.65 1252.23 223.63C1252.49 231.484 1252.68 239.02 1252.8 246.24C1253.06 253.08 1254.7 257.957 1257.74 260.87C1260.78 263.784 1265.72 265.24 1272.56 265.24C1278.64 265.24 1283.01 263.784 1285.67 260.87C1288.46 257.957 1290.04 253.08 1290.42 246.24C1290.68 243.2 1290.8 238.957 1290.8 233.51C1290.8 228.064 1290.68 222.047 1290.42 215.46H1345.9C1346.16 216.727 1346.35 220.147 1346.47 225.72C1346.6 231.167 1346.54 235.98 1346.28 240.16C1345.14 264.227 1338.81 281.517 1327.28 292.03C1315.88 302.544 1297.64 307.8 1272.56 307.8ZM1252.04 160.36H1290.8C1290.8 155.8 1290.74 151.494 1290.61 147.44C1290.61 143.387 1290.55 139.967 1290.42 137.18C1290.42 134.394 1290.42 132.62 1290.42 131.86C1290.04 125.78 1288.4 121.41 1285.48 118.75C1282.7 116.09 1278.14 114.76 1271.8 114.76C1265.22 114.76 1260.47 116.09 1257.55 118.75C1254.64 121.41 1253.06 125.78 1252.8 131.86C1252.68 136.42 1252.55 141.107 1252.42 145.92C1252.42 150.607 1252.3 155.42 1252.04 160.36Z" fill="white"/>
<path d="M1098.14 307.8C1073.69 307.8 1056.15 302.544 1045.51 292.03C1034.87 281.517 1028.98 264.227 1027.84 240.16C1027.71 235.98 1027.71 231.167 1027.84 225.72C1027.97 220.147 1028.09 216.727 1028.22 215.46H1078C1077.87 222.047 1077.81 228.064 1077.81 233.51C1077.81 238.957 1077.87 243.2 1078 246.24C1078.38 253.08 1080.28 257.957 1083.7 260.87C1087.25 263.784 1092.06 265.24 1098.14 265.24C1105.99 265.24 1111.69 263.784 1115.24 260.87C1118.79 257.957 1120.56 253.08 1120.56 246.24C1120.56 243.074 1120.56 241.237 1120.56 240.73C1120.56 240.224 1120.56 239.78 1120.56 239.4C1120.56 238.894 1120.56 237.12 1120.56 234.08C1120.56 230.28 1119.61 227.05 1117.71 224.39C1115.94 221.604 1112.83 219.64 1108.4 218.5L1081.42 210.9C1070.02 207.607 1060.2 203.49 1051.97 198.55C1043.74 193.61 1037.4 187.34 1032.97 179.74C1028.54 172.14 1026.32 162.767 1026.32 151.62C1026.32 149.72 1026.32 147.884 1026.32 146.11C1026.32 144.337 1026.32 142.627 1026.32 140.98C1026.32 116.407 1031.89 98.8002 1043.04 88.1602C1054.19 77.5202 1073.44 72.2002 1100.8 72.2002C1125.5 72.2002 1143.04 77.3302 1153.43 87.5902C1163.82 97.8502 1169.58 114.76 1170.72 138.32C1170.97 142.5 1171.04 147.44 1170.91 153.14C1170.78 158.84 1170.59 162.387 1170.34 163.78H1118.66C1118.79 161.5 1118.85 158.207 1118.85 153.9C1118.98 149.467 1118.98 145.16 1118.85 140.98C1118.85 136.674 1118.79 133.634 1118.66 131.86C1118.28 125.78 1116.76 121.41 1114.1 118.75C1111.57 116.09 1107.13 114.76 1100.8 114.76C1093.96 114.76 1089.15 116.09 1086.36 118.75C1083.57 121.41 1082.05 125.78 1081.8 131.86C1081.67 134.647 1081.55 136.674 1081.42 137.94C1081.42 139.207 1081.42 142.12 1081.42 146.68C1081.42 151.367 1082.31 155.357 1084.08 158.65C1085.85 161.944 1089.65 164.287 1095.48 165.68L1119.04 171.38C1136.77 175.56 1150.2 182.21 1159.32 191.33C1168.44 200.324 1173 213.56 1173 231.04C1173 232.687 1173 234.46 1173 236.36C1173 238.134 1173 239.907 1173 241.68C1173 265.24 1167.24 282.15 1155.71 292.41C1144.18 302.67 1124.99 307.8 1098.14 307.8Z" fill="white"/>
<path d="M943.891 42.94V0H1000.89V42.94H943.891ZM943.891 304V76H1000.89V304H943.891Z" fill="white"/>
<path d="M904.329 307.8C875.322 307.8 854.422 302.544 841.629 292.03C828.962 281.517 822.629 264.227 822.629 240.16V118.94H800.969V76.0004H823.009V11.4004H880.389V76.0004H918.769V118.94H879.629V246.62C879.629 253.46 881.212 258.337 884.379 261.25C887.672 264.164 894.322 265.62 904.329 265.62C907.242 265.62 910.092 265.557 912.879 265.43C915.792 265.304 919.022 265.24 922.569 265.24V305.9C919.909 306.66 917.059 307.167 914.019 307.42C910.979 307.674 907.749 307.8 904.329 307.8Z" fill="white"/>
<path d="M677.625 304V76.0005H734.625V104.5H744.505C745.645 93.2271 748.938 85.4371 754.385 81.1305C759.832 76.6971 766.798 74.4805 775.285 74.4805C778.578 74.4805 781.745 74.6071 784.785 74.8605C787.825 75.1138 790.105 75.3671 791.625 75.6205V118.94H776.045C761.478 118.94 751.282 121.157 745.455 125.59C739.628 130.024 736.018 136.04 734.625 143.64V304H677.625Z" fill="white"/>
<path d="M577.504 307.8C551.538 307.8 532.601 302.544 520.694 292.03C508.788 281.517 502.138 264.227 500.744 240.16C500.491 235.854 500.301 229.267 500.174 220.4C500.048 211.407 499.984 201.654 499.984 191.14C499.984 180.627 500.048 170.747 500.174 161.5C500.301 152.254 500.491 145.287 500.744 140.6C502.518 116.027 509.231 98.4835 520.884 87.9702C532.664 77.4569 551.284 72.2002 576.744 72.2002C602.204 72.2002 620.698 77.3302 632.224 87.5902C643.751 97.8502 650.084 114.76 651.224 138.32C651.351 141.107 651.414 146.047 651.414 153.14C651.541 160.107 651.541 167.834 651.414 176.32C651.414 184.68 651.224 192.407 650.844 199.5H556.984C556.984 207.607 557.048 215.65 557.174 223.63C557.428 231.484 557.618 239.02 557.744 246.24C557.998 253.08 559.644 257.957 562.684 260.87C565.724 263.784 570.664 265.24 577.504 265.24C583.584 265.24 587.954 263.784 590.614 260.87C593.401 257.957 594.984 253.08 595.364 246.24C595.618 243.2 595.744 238.957 595.744 233.51C595.744 228.064 595.618 222.047 595.364 215.46H650.844C651.098 216.727 651.288 220.147 651.414 225.72C651.541 231.167 651.478 235.98 651.224 240.16C650.084 264.227 643.751 281.517 632.224 292.03C620.824 302.544 602.584 307.8 577.504 307.8ZM556.984 160.36H595.744C595.744 155.8 595.681 151.494 595.554 147.44C595.554 143.387 595.491 139.967 595.364 137.18C595.364 134.394 595.364 132.62 595.364 131.86C594.984 125.78 593.338 121.41 590.424 118.75C587.638 116.09 583.078 114.76 576.744 114.76C570.158 114.76 565.408 116.09 562.494 118.75C559.581 121.41 557.998 125.78 557.744 131.86C557.618 136.42 557.491 141.107 557.364 145.92C557.364 150.607 557.238 155.42 556.984 160.36Z" fill="white"/>
<path d="M314.695 380V76.0002H371.695V100.7H379.675C384.995 91.5802 390.569 84.5502 396.395 79.6102C402.222 74.6702 411.089 72.2002 422.995 72.2002C438.829 72.2002 451.115 77.1402 459.855 87.0202C468.595 96.9002 473.535 113.367 474.675 136.42C474.929 142.374 475.119 150.164 475.245 159.79C475.499 169.29 475.625 179.36 475.625 190C475.625 200.64 475.499 210.774 475.245 220.4C475.119 229.9 474.929 237.627 474.675 243.58C473.535 266.507 468.089 282.974 458.335 292.98C448.582 302.86 435.789 307.8 419.955 307.8C411.595 307.8 404.249 305.647 397.915 301.34C391.709 296.907 385.629 289.56 379.675 279.3H371.695V380H314.695ZM396.395 266.38C402.349 266.38 407.289 264.924 411.215 262.01C415.142 259.097 417.295 254.6 417.675 248.52C418.182 241.047 418.562 232.37 418.815 222.49C419.069 212.61 419.195 202.224 419.195 191.33C419.195 180.437 419.069 169.797 418.815 159.41C418.562 149.024 418.182 139.714 417.675 131.48C417.295 125.4 415.775 120.904 413.115 117.99C410.455 115.077 406.149 113.62 400.195 113.62C395.129 113.62 389.682 115.14 383.855 118.18C378.029 121.094 373.975 125.02 371.695 129.96V250.04C374.355 255.867 377.585 260.047 381.385 262.58C385.312 265.114 390.315 266.38 396.395 266.38Z" fill="white"/>
<path d="M142.199 304L181.339 183.16L142.959 76H198.059L212.119 123.12L214.399 160.36H225.039L227.319 123.12L240.999 76H296.099L258.099 184.3L296.859 304H241.759L227.319 247.38L225.039 201.4H214.399L212.119 247.38L197.299 304H142.199Z" fill="white"/>
<path d="M0 304V0H131.48V50.16H57V124.26H127.68V174.42H57V253.84H131.48V304H0Z" fill="white"/>
</svg>
