<svg width="1588" height="380" viewBox="0 0 1588 380" fill="none" xmlns="http://www.w3.org/2000/svg">
<path d="M1513.4 307.8C1487.43 307.8 1468.5 302.544 1456.59 292.03C1444.68 281.517 1438.03 264.227 1436.64 240.16C1436.39 235.854 1436.2 229.267 1436.07 220.4C1435.94 211.407 1435.88 201.654 1435.88 191.14C1435.88 180.627 1435.94 170.747 1436.07 161.5C1436.2 152.254 1436.39 145.287 1436.64 140.6C1438.41 116.027 1445.13 98.4835 1456.78 87.9702C1468.56 77.4569 1487.18 72.2002 1512.64 72.2002C1538.1 72.2002 1556.59 77.3302 1568.12 87.5902C1579.65 97.8502 1585.98 114.76 1587.12 138.32C1587.25 141.107 1587.31 146.047 1587.31 153.14C1587.44 160.107 1587.44 167.834 1587.31 176.32C1587.31 184.68 1587.12 192.407 1586.74 199.5H1492.88C1492.88 207.607 1492.94 215.65 1493.07 223.63C1493.32 231.484 1493.51 239.02 1493.64 246.24C1493.89 253.08 1495.54 257.957 1498.58 260.87C1501.62 263.784 1506.56 265.24 1513.4 265.24C1519.48 265.24 1523.85 263.784 1526.51 260.87C1529.3 257.957 1530.88 253.08 1531.26 246.24C1531.51 243.2 1531.64 238.957 1531.64 233.51C1531.64 228.064 1531.51 222.047 1531.26 215.46H1586.74C1586.99 216.727 1587.18 220.147 1587.31 225.72C1587.44 231.167 1587.37 235.98 1587.12 240.16C1585.98 264.227 1579.65 281.517 1568.12 292.03C1556.72 302.544 1538.48 307.8 1513.4 307.8ZM1492.88 160.36H1531.64C1531.64 155.8 1531.58 151.494 1531.45 147.44C1531.45 143.387 1531.39 139.967 1531.26 137.18C1531.26 134.394 1531.26 132.62 1531.26 131.86C1530.88 125.78 1529.23 121.41 1526.32 118.75C1523.53 116.09 1518.97 114.76 1512.64 114.76C1506.05 114.76 1501.3 116.09 1498.39 118.75C1495.48 121.41 1493.89 125.78 1493.64 131.86C1493.51 136.42 1493.39 141.107 1493.26 145.92C1493.26 150.607 1493.13 155.42 1492.88 160.36Z" fill="white"/>
<path d="M1356.84 163.78C1356.97 161.5 1357.03 158.207 1357.03 153.9C1357.16 149.467 1357.16 145.16 1357.03 140.98C1357.03 136.674 1356.97 133.634 1356.84 131.86C1356.46 125.78 1354.82 121.41 1351.9 118.75C1349.12 116.09 1344.56 114.76 1338.22 114.76C1331.64 114.76 1326.89 116.09 1323.97 118.75C1321.06 121.41 1319.48 125.78 1319.22 131.86C1318.97 140.854 1318.78 150.227 1318.65 159.98C1318.53 169.607 1318.46 179.424 1318.46 189.43C1318.46 199.31 1318.53 209.064 1318.65 218.69C1318.78 228.19 1318.97 237.374 1319.22 246.24C1319.48 253.08 1321.12 257.957 1324.16 260.87C1327.2 263.784 1332.14 265.24 1338.98 265.24C1345.06 265.24 1349.43 263.784 1352.09 260.87C1354.88 257.957 1356.46 253.08 1356.84 246.24C1357.1 243.2 1357.22 238.957 1357.22 233.51C1357.22 228.064 1357.1 222.047 1356.84 215.46H1412.32C1412.58 216.727 1412.77 220.147 1412.89 225.72C1413.02 231.167 1412.96 235.98 1412.7 240.16C1411.56 264.227 1405.23 281.517 1393.7 292.03C1382.3 302.544 1364.06 307.8 1338.98 307.8C1313.02 307.8 1294.08 302.544 1282.17 292.03C1270.27 281.517 1263.62 264.227 1262.22 240.16C1261.97 235.854 1261.78 229.267 1261.65 220.4C1261.53 211.407 1261.46 201.654 1261.46 191.14C1261.46 180.627 1261.53 170.747 1261.65 161.5C1261.78 152.254 1261.97 145.287 1262.22 140.6C1264 116.027 1270.71 98.4835 1282.36 87.9702C1294.14 77.4569 1312.76 72.2002 1338.22 72.2002C1363.68 72.2002 1382.18 77.3302 1393.7 87.5902C1405.23 97.8502 1411.56 114.76 1412.7 138.32C1412.96 142.5 1413.02 147.44 1412.89 153.14C1412.77 158.84 1412.58 162.387 1412.32 163.78H1356.84Z" fill="white"/>
<path d="M1073.58 304V76.0002H1130.58V100.7H1140.46C1145.78 91.5802 1151.36 84.5502 1157.18 79.6102C1163.01 74.6702 1171.88 72.2002 1183.78 72.2002C1199.62 72.2002 1211.97 77.1402 1220.83 87.0202C1229.83 96.9002 1234.32 113.367 1234.32 136.42V304H1177.32V131.48C1177.32 125.4 1175.74 120.904 1172.57 117.99C1169.53 115.077 1165.04 113.62 1159.08 113.62C1154.02 113.62 1148.57 115.14 1142.74 118.18C1136.92 121.094 1132.86 125.02 1130.58 129.96V304H1073.58Z" fill="white"/>
<path d="M973.458 307.8C947.491 307.8 928.554 302.544 916.648 292.03C904.741 281.517 898.091 264.227 896.698 240.16C896.444 235.854 896.254 229.267 896.128 220.4C896.001 211.407 895.938 201.654 895.938 191.14C895.938 180.627 896.001 170.747 896.128 161.5C896.254 152.254 896.444 145.287 896.698 140.6C898.471 116.027 905.184 98.4835 916.838 87.9702C928.618 77.4569 947.238 72.2002 972.698 72.2002C998.158 72.2002 1016.65 77.3302 1028.18 87.5902C1039.7 97.8502 1046.04 114.76 1047.18 138.32C1047.3 141.107 1047.37 146.047 1047.37 153.14C1047.49 160.107 1047.49 167.834 1047.37 176.32C1047.37 184.68 1047.18 192.407 1046.8 199.5H952.938C952.938 207.607 953.001 215.65 953.128 223.63C953.381 231.484 953.571 239.02 953.698 246.24C953.951 253.08 955.598 257.957 958.638 260.87C961.678 263.784 966.618 265.24 973.458 265.24C979.538 265.24 983.908 263.784 986.568 260.87C989.354 257.957 990.938 253.08 991.318 246.24C991.571 243.2 991.698 238.957 991.698 233.51C991.698 228.064 991.571 222.047 991.318 215.46H1046.8C1047.05 216.727 1047.24 220.147 1047.37 225.72C1047.49 231.167 1047.43 235.98 1047.18 240.16C1046.04 264.227 1039.7 281.517 1028.18 292.03C1016.78 302.544 998.538 307.8 973.458 307.8ZM952.938 160.36H991.698C991.698 155.8 991.634 151.494 991.508 147.44C991.508 143.387 991.444 139.967 991.318 137.18C991.318 134.394 991.318 132.62 991.318 131.86C990.938 125.78 989.291 121.41 986.378 118.75C983.591 116.09 979.031 114.76 972.698 114.76C966.111 114.76 961.361 116.09 958.448 118.75C955.534 121.41 953.951 125.78 953.698 131.86C953.571 136.42 953.444 141.107 953.318 145.92C953.318 150.607 953.191 155.42 952.938 160.36Z" fill="white"/>
<path d="M811.039 42.94V0H868.039V42.94H811.039ZM811.039 304V76H868.039V304H811.039Z" fill="white"/>
<path d="M677.625 304V76.0005H734.625V104.5H744.505C745.645 93.2271 748.938 85.4371 754.385 81.1305C759.832 76.6971 766.798 74.4805 775.285 74.4805C778.578 74.4805 781.745 74.6071 784.785 74.8605C787.825 75.1138 790.105 75.3671 791.625 75.6205V118.94H776.045C761.478 118.94 751.282 121.157 745.455 125.59C739.628 130.024 736.018 136.04 734.625 143.64V304H677.625Z" fill="white"/>
<path d="M577.5 307.8C551.534 307.8 532.597 302.544 520.69 292.03C508.784 281.517 502.134 264.227 500.74 240.16C500.487 235.854 500.297 229.267 500.17 220.4C500.044 211.407 499.98 201.654 499.98 191.14C499.98 180.627 500.044 170.747 500.17 161.5C500.297 152.254 500.487 145.287 500.74 140.6C502.514 116.027 509.227 98.4835 520.88 87.9702C532.66 77.4569 551.28 72.2002 576.74 72.2002C602.2 72.2002 620.694 77.3302 632.221 87.5902C643.747 97.8502 650.081 114.76 651.221 138.32C651.347 141.107 651.411 146.047 651.411 153.14C651.537 160.107 651.537 167.834 651.411 176.32C651.411 184.68 651.221 192.407 650.841 199.5H556.98C556.98 207.607 557.044 215.65 557.17 223.63C557.424 231.484 557.614 239.02 557.74 246.24C557.994 253.08 559.64 257.957 562.68 260.87C565.72 263.784 570.66 265.24 577.5 265.24C583.58 265.24 587.95 263.784 590.61 260.87C593.397 257.957 594.98 253.08 595.36 246.24C595.614 243.2 595.74 238.957 595.74 233.51C595.74 228.064 595.614 222.047 595.36 215.46H650.841C651.094 216.727 651.284 220.147 651.411 225.72C651.537 231.167 651.474 235.98 651.221 240.16C650.081 264.227 643.747 281.517 632.221 292.03C620.821 302.544 602.58 307.8 577.5 307.8ZM556.98 160.36H595.74C595.74 155.8 595.677 151.494 595.55 147.44C595.55 143.387 595.487 139.967 595.36 137.18C595.36 134.394 595.36 132.62 595.36 131.86C594.98 125.78 593.334 121.41 590.42 118.75C587.634 116.09 583.074 114.76 576.74 114.76C570.154 114.76 565.404 116.09 562.49 118.75C559.577 121.41 557.994 125.78 557.74 131.86C557.614 136.42 557.487 141.107 557.36 145.92C557.36 150.607 557.234 155.42 556.98 160.36Z" fill="white"/>
<path d="M314.695 380V76.0002H371.695V100.7H379.675C384.995 91.5802 390.569 84.5502 396.395 79.6102C402.222 74.6702 411.089 72.2002 422.995 72.2002C438.829 72.2002 451.115 77.1402 459.855 87.0202C468.595 96.9002 473.535 113.367 474.675 136.42C474.929 142.374 475.119 150.164 475.245 159.79C475.499 169.29 475.625 179.36 475.625 190C475.625 200.64 475.499 210.774 475.245 220.4C475.119 229.9 474.929 237.627 474.675 243.58C473.535 266.507 468.089 282.974 458.335 292.98C448.582 302.86 435.789 307.8 419.955 307.8C411.595 307.8 404.249 305.647 397.915 301.34C391.709 296.907 385.629 289.56 379.675 279.3H371.695V380H314.695ZM396.395 266.38C402.349 266.38 407.289 264.924 411.215 262.01C415.142 259.097 417.295 254.6 417.675 248.52C418.182 241.047 418.562 232.37 418.815 222.49C419.069 212.61 419.195 202.224 419.195 191.33C419.195 180.437 419.069 169.797 418.815 159.41C418.562 149.024 418.182 139.714 417.675 131.48C417.295 125.4 415.775 120.904 413.115 117.99C410.455 115.077 406.149 113.62 400.195 113.62C395.129 113.62 389.682 115.14 383.855 118.18C378.029 121.094 373.975 125.02 371.695 129.96V250.04C374.355 255.867 377.585 260.047 381.385 262.58C385.312 265.114 390.315 266.38 396.395 266.38Z" fill="white"/>
<path d="M142.195 304L181.335 183.16L142.955 76H198.055L212.115 123.12L214.395 160.36H225.035L227.315 123.12L240.995 76H296.095L258.095 184.3L296.855 304H241.755L227.315 247.38L225.035 201.4H214.395L212.115 247.38L197.295 304H142.195Z" fill="white"/>
<path d="M0 304V0H131.48V50.16H57V124.26H127.68V174.42H57V253.84H131.48V304H0Z" fill="white"/>
</svg>
