<svg width="120" height="38" viewBox="0 0 120 38" fill="none" xmlns="http://www.w3.org/2000/svg">
<path d="M31.793 6.98316L31.9694 7.85839C32.4986 7.68335 33.2043 7.5083 33.7336 7.33325C50.8461 0.856533 66.1945 -0.193745 68.8407 5.2327C69.8993 7.5083 68.8407 10.4841 66.0181 13.81C70.0757 9.7839 71.8398 6.10793 70.6049 3.48223C67.6058 -2.2943 50.3169 -0.718885 31.793 6.98316Z" fill="white"/>
<path d="M62.488 5.40771C62.488 5.40771 57.5483 7.50827 52.4322 13.6349C52.4322 13.6349 48.0217 19.0613 45.5519 22.7373C45.5519 22.7373 44.317 8.55855 44.4934 7.33323C44.4934 7.33323 44.6698 6.80809 43.9641 6.98313C43.9641 6.98313 41.8471 7.50827 40.7886 7.33323C40.7886 7.33323 34.2611 7.33323 30.7328 9.43378C30.7328 9.43378 31.0856 8.38351 31.0856 7.85837C31.0856 7.85837 28.9686 7.68332 26.8516 7.33323C26.8516 7.33323 22.9704 6.63304 19.442 8.38351C19.442 8.38351 13.2674 11.3593 14.8552 17.1358C14.8552 17.1358 15.5608 19.4114 18.9128 21.512C18.9128 21.512 22.4411 24.3127 22.0883 26.5883C22.0883 26.5883 21.9119 29.214 17.8543 30.9645C17.8543 30.9645 12.5617 33.0651 11.5032 29.039C11.5032 29.039 11.1504 25.5381 7.62203 26.7634C7.62203 26.7634 6.03426 27.4636 6.3871 29.5641C6.3871 29.5641 6.56352 32.0148 10.7975 33.5902C10.7975 33.5902 17.325 35.8658 23.8525 30.9645C23.8525 30.9645 24.3817 32.89 27.7337 32.5399C27.7337 32.5399 32.1441 32.5399 35.1432 28.5138C38.1423 24.4878 39.5537 20.9869 40.6122 15.9105L41.8471 32.89H42.1999C42.1999 32.89 52.2558 17.4859 54.3728 16.0856C54.3728 16.0856 50.4916 30.2643 49.2567 31.8397C49.2567 31.8397 53.3143 30.9645 54.5492 31.3146C54.5492 31.3146 58.4304 31.8397 59.6653 31.3146C59.6653 31.3146 60.1946 31.1395 60.5474 29.7392C60.5474 29.7392 60.9003 28.6889 60.0182 28.8639C60.0182 28.8639 57.7247 29.3891 56.6662 29.214C56.6662 29.214 55.6077 29.039 55.2549 29.039C55.2549 29.039 61.2531 7.68332 62.488 5.93285C62.6644 5.93285 63.0173 5.40771 62.488 5.40771ZM35.3196 22.5623C33.9083 26.0632 31.4384 27.8137 31.4384 27.8137C29.8507 29.039 28.7922 28.6889 28.7922 28.6889C27.3808 28.3388 25.7931 28.1638 25.7931 28.1638C27.7337 25.188 26.1459 22.2122 26.1459 22.2122C25.6167 20.8118 22.6176 18.0111 22.6176 18.0111C22.2647 18.0111 19.9713 15.7355 19.9713 15.7355C18.5599 13.985 19.442 12.5846 19.442 12.5846C22.2647 8.3835 25.7931 9.60883 25.7931 9.60883C28.2629 10.8342 26.8516 13.4599 26.8516 13.4599C26.4987 14.16 26.3223 15.3854 26.3223 15.3854C26.1459 18.8863 28.0865 19.9366 28.0865 19.9366C30.7328 20.9868 31.262 19.0613 31.262 19.0613C31.6149 17.836 30.0271 16.0856 30.0271 16.0856C28.7922 14.5101 30.7328 12.5846 30.7328 12.5846C33.9083 9.60883 38.6716 9.60883 38.6716 9.60883C37.7895 17.661 35.3196 22.5623 35.3196 22.5623Z" fill="white"/>
<path d="M2.15195 32.715C1.09344 30.4394 2.15195 27.4636 4.97463 24.1377C0.917021 28.1638 -0.847158 31.8397 0.387768 34.4654C3.38687 40.417 21.0287 38.6666 39.9054 30.6144C40.2582 30.4394 40.4346 30.4394 40.7875 30.2643V29.214C22.0872 36.9161 4.97464 38.4915 2.15195 32.715Z" fill="white"/>
<path d="M76.4244 20.8118L76.7772 24.1376H76.4244C76.0715 23.2624 75.7187 22.7373 75.3659 22.2121C74.6602 21.687 73.9545 21.3369 72.896 21.3369C71.4847 21.3369 70.6026 21.862 69.8969 22.9123C69.3676 23.7876 69.0148 24.8378 69.0148 26.0632C69.0148 27.1134 69.1912 27.9887 69.5441 28.8639C69.8969 29.7391 70.4262 30.2643 71.1318 30.6144C71.8375 30.9645 72.3668 31.1395 73.0724 31.1395C73.4253 31.1395 73.7781 31.1395 74.1309 30.9645C74.4838 30.7894 74.8366 30.7894 75.1894 30.6144V27.6386C75.1894 27.1134 75.1894 26.7633 75.013 26.5883C75.013 26.4133 74.8366 26.2382 74.6602 26.2382C74.4838 26.2382 74.1309 26.0632 73.7781 26.0632V25.7131H77.8357V26.0632H77.6593C77.3065 26.0632 76.9536 26.2382 76.7772 26.4133C76.6008 26.5883 76.6008 26.9384 76.6008 27.4635V30.6144C76.0715 30.9645 75.3659 31.1395 74.8366 31.3146C74.3074 31.4896 73.6017 31.4896 72.896 31.4896C70.779 31.4896 69.3677 30.7894 68.3091 29.5641C67.6035 28.5138 67.0742 27.4635 67.0742 26.2382C67.0742 25.363 67.2506 24.4877 67.7799 23.6125C68.3091 22.5622 69.0148 21.862 69.8969 21.3369C70.6026 20.8118 71.6611 20.6367 72.7196 20.6367C73.0724 20.6367 73.4253 20.6367 73.7781 20.8118C74.1309 20.8118 74.4838 20.9868 75.1894 21.1619C75.5423 21.3369 75.7187 21.3369 75.7187 21.3369C75.8951 21.3369 75.8951 21.3369 75.8951 21.1619C75.8951 20.9868 76.0715 20.8118 76.0715 20.6367H76.4244V20.8118Z" fill="white"/>
<path d="M88.9523 31.4897H86.1296L82.6012 26.5884C82.4248 26.5884 82.072 26.5884 81.8955 26.5884H81.7191H81.5427V29.7393C81.5427 30.4394 81.5427 30.7895 81.7191 30.9646C81.8955 31.1396 82.2484 31.3147 82.6012 31.3147H82.9541V31.4897H78.3672V31.1396H78.72C79.2493 31.1396 79.4257 30.9646 79.6021 30.7895C79.7785 30.6145 79.7785 30.2644 79.7785 29.7393V22.9125C79.7785 22.2123 79.7785 21.8622 79.6021 21.6871C79.4257 21.5121 79.0729 21.337 78.72 21.337H78.3672V20.9869H82.2484C83.3069 20.9869 84.189 20.9869 84.7182 21.162C85.2475 21.337 85.7767 21.6871 86.1296 22.0372C86.4824 22.3873 86.6588 22.9124 86.6588 23.6126C86.6588 24.3128 86.4824 24.838 85.9532 25.3631C85.6003 25.8882 84.8946 26.2383 84.0126 26.4134L86.1296 29.3892C86.6588 30.0894 87.0117 30.6145 87.3645 30.7895C87.7173 30.9646 88.2466 31.1396 88.7758 31.1396V31.4897H88.9523ZM81.5427 26.2383C81.7191 26.2383 81.7191 26.2383 81.7191 26.2383H81.8955C82.9541 26.2383 83.6597 26.0633 84.189 25.5381C84.7182 25.1881 84.8946 24.4879 84.8946 23.9627C84.8946 23.2625 84.7182 22.7374 84.3654 22.3873C84.0126 22.0372 83.4833 21.8622 82.7776 21.8622C82.4248 21.8622 82.072 21.8622 81.5427 22.0372V26.2383Z" fill="white"/>
<path d="M94.5972 20.8119C96.0086 20.8119 97.0671 21.337 98.1256 22.3873C99.1841 23.4376 99.7134 24.6629 99.7134 26.2383C99.7134 27.8137 99.1841 29.2141 98.1256 30.2644C97.0671 31.3147 95.8322 31.8398 94.4208 31.8398C93.0095 31.8398 91.7745 31.3147 90.716 30.2644C89.6575 29.2141 89.3047 27.9888 89.3047 26.2383C89.3047 24.6629 89.8339 23.2625 91.0689 22.2123C92.1274 21.337 93.3623 20.8119 94.5972 20.8119ZM94.4208 21.337C93.5387 21.337 92.6566 21.6871 92.1274 22.3873C91.4217 23.2625 91.0689 24.4879 91.0689 26.2383C91.0689 27.9888 91.4217 29.2141 92.1274 30.2644C92.6566 30.9646 93.3623 31.3147 94.4208 31.3147C95.4793 31.3147 96.185 30.9646 96.8907 30.0894C97.5963 29.3892 97.7728 28.1638 97.7728 26.4134C97.7728 24.6629 97.4199 23.2625 96.7142 22.3873C96.3614 21.6871 95.4793 21.337 94.4208 21.337Z" fill="white"/>
<path d="M108.004 21.337V20.9869H111.709V21.337H111.179C110.827 21.337 110.474 21.5121 110.297 21.8622C110.121 22.0372 110.121 22.3873 110.121 22.9125V27.1136C110.121 28.1638 109.945 29.0391 109.768 29.5642C109.592 30.0894 109.062 30.6145 108.533 30.9646C108.004 31.3147 107.122 31.6648 106.063 31.6648C104.828 31.6648 104.123 31.4897 103.417 31.1396C102.888 30.7895 102.359 30.2644 102.182 29.5642C102.006 29.0391 102.006 28.1638 102.006 26.9385V22.9125C102.006 22.2123 101.829 21.8622 101.653 21.6871C101.476 21.5121 101.124 21.337 100.771 21.337H100.418V20.9869H105.005V21.337H104.652C104.299 21.337 103.946 21.5121 103.77 21.6871C103.593 21.8622 103.593 22.2123 103.593 22.9125V27.4637C103.593 27.8138 103.593 28.3389 103.77 28.864C103.77 29.3892 103.946 29.7393 104.123 30.0894C104.299 30.4394 104.652 30.6145 105.005 30.7895C105.358 30.9646 105.887 31.1396 106.416 31.1396C107.122 31.1396 107.651 30.9646 108.18 30.6145C108.71 30.2644 109.062 29.9143 109.239 29.3892C109.415 28.864 109.592 28.1638 109.592 26.9385V22.7374C109.592 22.0372 109.592 21.6871 109.415 21.5121C109.239 21.337 108.886 21.162 108.533 21.162H108.004V21.337Z" fill="white"/>
<path d="M115.058 26.5884V29.7393C115.058 30.4394 115.058 30.7895 115.235 30.9646C115.411 31.1396 115.764 31.3147 116.117 31.3147H116.47V31.4897H111.883V31.1396H112.236C112.765 31.1396 112.941 30.9646 113.118 30.7895C113.294 30.6145 113.294 30.2644 113.294 29.7393V22.9125C113.294 22.2123 113.294 21.8622 113.118 21.6871C112.941 21.5121 112.588 21.337 112.236 21.337H111.883V20.9869H115.764C116.646 20.9869 117.528 21.162 118.057 21.337C118.587 21.5121 119.116 21.8622 119.469 22.3873C119.822 22.9125 119.998 23.4376 119.998 23.9627C119.998 24.838 119.645 25.5381 119.116 26.0633C118.587 26.5884 117.705 26.9385 116.646 26.9385C116.47 26.9385 116.117 26.9385 115.764 26.9385C115.764 26.7635 115.411 26.7635 115.058 26.5884ZM115.058 26.2383C115.411 26.2383 115.588 26.4134 115.764 26.4134C115.94 26.4134 116.117 26.4134 116.293 26.4134C116.823 26.4134 117.352 26.2383 117.705 25.7132C118.057 25.3631 118.234 24.838 118.234 24.1378C118.234 23.6126 118.057 23.2625 117.881 22.9125C117.705 22.5624 117.352 22.2123 116.999 22.0372C116.646 21.8622 116.293 21.6871 115.764 21.6871C115.411 21.6871 115.235 21.6871 114.705 21.8622V26.2383H115.058Z" fill="white"/>
</svg>
