<svg width="229" height="34" viewBox="0 0 229 34" fill="none" xmlns="http://www.w3.org/2000/svg">
<path d="M20.2088 0L13.5841 3.31905L6.97266 0L13.5841 12.5831L20.2088 0Z" fill="#FDBB2F"/>
<path d="M22.5269 9.73314L22.4202 9.65316L27.1389 7.66706V1.01562L18.9279 4.52129C18.9279 4.52129 14.4892 12.9322 14.3825 13.1322C17.8615 13.5454 20.4741 16.4645 20.4741 19.9835C20.4741 23.7958 17.3817 26.8882 13.5694 26.8882C9.75719 26.8882 6.66475 23.7825 6.66475 19.9835C6.66475 16.4645 9.27733 13.5454 12.7563 13.1322C12.6764 12.9322 8.23763 4.52129 8.23763 4.52129L0.0399885 1.01562V7.65373L4.75863 9.63983L4.65199 9.73314C1.69285 12.3191 0 16.0513 0 19.9835C0 27.4747 6.09158 33.5797 13.5828 33.5797C21.0739 33.5797 27.1655 27.4747 27.1655 19.9835C27.1788 16.0513 25.4727 12.3191 22.5269 9.73314Z" fill="#FDBB2F"/>
<path d="M197.142 17.5586C197.329 17.5586 197.462 17.6919 197.502 17.8918C197.595 18.385 197.515 18.9715 197.502 19.0782C197.475 19.3048 197.329 19.4647 197.142 19.4647H183.146L183.213 19.478C178.508 19.478 174.802 21.0643 174.802 24.5699C174.802 28.0623 178.561 29.6618 183.213 29.6618C187.865 29.6618 191.637 28.0623 191.637 24.5699C191.637 22.9704 190.851 21.7707 189.558 20.9443H194.89C195.623 21.8907 196.023 23.0237 196.023 24.3433C196.023 29.3286 190.291 31.5946 183.213 31.5946C176.148 31.5946 170.403 29.3286 170.403 24.3433C170.403 22.2506 171.416 20.6244 173.122 19.4647H169.257L168.004 17.5586H197.142Z" fill="#0078C1"/>
<path d="M197.464 13.7581L196.331 15.5043C189.36 15.5043 184.441 13.4516 182.775 10.8256C181.096 13.4516 176.177 15.5043 169.219 15.5043L168.086 13.7581C174.244 13.7581 180.043 10.9589 180.043 7.16003H170.005L168.779 5.25391H195.731C196.038 5.25391 196.105 5.62713 196.105 6.21363C196.105 6.80013 196.038 7.17336 195.731 7.17336H185.521C185.508 10.9589 191.319 13.7581 197.464 13.7581Z" fill="#0078C1"/>
<path d="M214.126 7.19812H202.782L201.556 5.27867H218.298C218.844 5.27867 219.324 5.75853 219.324 6.30504V14.9826H224.11V4.26562H227.522C228.068 4.26562 228.548 4.74549 228.548 5.292V28.3121V28.9919V30.2182H205.328C204.195 30.2182 203.276 29.2985 203.276 28.1655V22.3538H206.688C207.234 22.3538 207.714 22.8337 207.714 23.3802V27.2724C207.714 27.8189 208.194 28.2988 208.741 28.2988H224.11V22.2205H217.138L215.912 20.3144H224.11V16.902H211.98V21.6873H207.541V16.902H201.769L200.543 14.9959H214.886V7.90459C214.872 7.25144 214.126 7.19812 214.126 7.19812Z" fill="#0078C1"/>
<path d="M96.5545 4.5625H92.5823V14.7996H76.3737V4.5625H72.4015C71.4684 4.5625 70.6953 5.46891 70.6953 6.57526V28.2224C70.6953 29.3288 71.4551 30.2485 72.4015 30.2485H76.3737V19.2516H92.5823V30.2485H96.5545C97.5009 30.2485 98.2607 29.3421 98.2607 28.2224V6.58859C98.2607 5.46891 97.5143 4.5625 96.5545 4.5625Z" fill="#0078C1"/>
<path d="M64.102 4.5625H60.1298V24.2369L48.2132 8.52137C46.2271 6.22869 44.8675 4.5625 41.6951 4.5625H37.6562V28.2224C37.6562 29.3288 38.416 30.2485 39.3624 30.2485H43.3213V10.4941L55.3178 26.103C57.3439 28.449 59.1434 30.2618 62.0892 30.2618H65.7948V6.58859C65.8081 5.46891 65.035 4.5625 64.102 4.5625Z" fill="#0078C1"/>
<path d="M131.627 22.7251H119.524V30.2563H115.072V22.7251H103.129L101.902 20.8057H131.627C131.934 20.8057 132 21.1789 132 21.7654C132 22.3386 131.934 22.7251 131.627 22.7251ZM104.302 15.9138V5.10352H129.921C130.228 5.10352 130.294 5.47674 130.294 6.06324C130.294 6.64974 130.228 7.02297 129.921 7.02297H108.74V10.342H129.748C130.054 10.342 130.121 10.7152 130.121 11.3017C130.121 11.8882 130.054 12.2615 129.748 12.2615H108.74V15.034C108.74 15.5805 109.22 16.0604 109.767 16.0604H130.254C130.561 16.0604 130.627 16.4336 130.627 17.0201C130.627 17.6066 130.561 17.9798 130.254 17.9798H106.354C105.221 17.9665 104.302 17.0468 104.302 15.9138Z" fill="#0078C1"/>
<path d="M154.101 28.1918C150.542 27.0588 146.477 24.1129 144.997 20.6606C143.531 24.1129 139.452 27.0588 135.893 28.1918L134.387 26.7922C138.839 25.1527 142.771 20.6339 142.771 14.3691V7.19778H136.306L135.08 5.27833H154.208C154.514 5.27833 154.581 5.65155 154.581 6.23805C154.581 6.82455 154.514 7.19778 154.208 7.19778H147.223V14.3824C147.223 20.6473 151.155 25.1527 155.607 26.8055L154.101 28.1918ZM158.34 30.2445V4.25195H161.766C162.312 4.25195 162.792 4.73182 162.792 5.27833V12.1164H166.178C166.484 12.1164 166.551 12.4896 166.551 13.0761C166.551 13.6626 166.484 14.0358 166.178 14.0358H162.792V30.2445H158.34Z" fill="#0078C1"/>
</svg>
