<svg width="152" height="43" viewBox="0 0 152 43" fill="none" xmlns="http://www.w3.org/2000/svg">
<path d="M12.4139 13.2474C11.668 14.9576 10.4399 16.7558 8.90543 18.3806C7.32576 20.0908 5.39449 21.5826 3.42053 22.7679L0 18.7749C2.45615 17.371 4.78171 15.4398 6.53718 12.9837C8.29265 10.5703 9.38762 7.7626 9.38762 4.60583V0.921667H15.091V4.51793C15.091 7.63201 16.2312 10.2639 17.9415 12.4136C19.6517 14.6512 21.9773 16.3188 24.2576 17.4162L21.1887 21.5826C16.9771 19.3023 14.2145 16.5825 12.4139 13.2474ZM9.38762 24.7419H32.4197V41.5428H9.38762V24.7419ZM14.7846 29.3477V36.9797H26.98V29.3477H14.7846ZM32.4197 23.1622H26.98V0H32.4197V9.21165H38.7811V13.8175H32.4197V23.1622Z" fill="#004499"/>
<path d="M54.1996 18.3379C52.6652 16.8914 51.4798 15.3544 50.7791 13.9506C50.1211 15.5302 48.9357 17.2405 47.4013 18.8628C45.8216 20.4851 43.9355 22.1527 41.831 23.4259L38.4531 19.345C41.1303 17.5895 43.5412 15.5729 45.1661 13.2474C46.7885 10.9671 47.7981 8.33519 47.7981 5.3517V0.921668H53.5893V5.2638C53.5893 8.55368 54.6416 11.0977 56.3519 13.1595C57.9743 15.2665 60.2998 16.8437 62.6254 18.029L59.5539 22.2858C57.6201 21.2335 55.7341 19.8724 54.1996 18.3379ZM68.8511 40.144C66.9199 41.7664 64.2452 42.7332 61.0859 42.7332C57.9265 42.7332 55.2946 41.7689 53.4085 40.144C51.4773 38.4338 50.3823 36.0631 50.3823 33.1248C50.3823 30.3171 51.4798 27.9489 53.4085 26.2386C55.2946 24.5284 57.9265 23.5188 61.0859 23.5188C64.2452 23.5188 66.9199 24.5284 68.8511 26.2386C70.7372 27.9489 71.8774 30.3196 71.8774 33.1248C71.8799 36.0631 70.7372 38.4338 68.8511 40.144ZM64.9911 29.5285C63.9815 28.6521 62.6656 28.1247 61.0859 28.1247C57.9265 28.1247 55.7341 30.1438 55.7341 33.1273C55.7341 36.1535 57.9265 38.1726 61.0859 38.1726C64.2452 38.1726 66.5256 36.1535 66.5256 33.1273C66.5256 31.6757 65.9128 30.405 64.9911 29.5285ZM67.0982 12.1072H59.4208V7.28293H67.0982V0H72.5379V23.3807H67.0982V12.1072Z" fill="#004499"/>
<path d="M87.487 26.6279V23.7323C83.3206 22.8106 81.0377 19.8724 81.0377 16.3615C81.0377 14.4302 82.0021 12.5442 83.5818 11.1856H78.2727V6.84344H101.875V11.1856H96.7415C98.3212 12.5894 99.2429 14.4755 99.2429 16.4494C99.2429 19.915 97.1384 22.7654 92.9694 23.6871V26.3642C96.6989 26.1457 100.428 25.882 104.113 25.4877V0H109.51V13.8627H115.652V18.4685H109.51V36.8064H104.113V29.8751C95.5587 30.8394 86.7838 31.4974 77.7905 31.7611L77.2656 26.8489C80.6862 26.8489 84.064 26.761 87.487 26.6279ZM84.6793 0.175795H95.4281V4.73893H84.6793V0.175795ZM86.2137 16.364C86.2137 18.25 87.7055 19.7418 90.119 19.7418C92.5751 19.7418 94.0242 18.25 94.0242 16.364C94.0242 14.478 92.5776 12.941 90.119 12.941C87.7055 12.941 86.2137 14.4755 86.2137 16.364Z" fill="#004499"/>
<path d="M131.14 17.022C132.499 19.6112 134.475 21.4972 136.886 23.1195L133.639 27.2884C132.105 26.2361 130.48 24.6992 129.209 23.1195C127.85 21.5399 126.795 19.8724 126.401 18.5137C125.173 22.3737 122.541 25.4903 119.206 28.1222L115.828 24.1291C118.46 21.8488 120.434 19.8297 121.707 17.1978C122.935 14.6086 123.551 11.4518 123.551 6.93134H117.147V2.36821H135.264V6.93134H128.99C128.99 11.1856 129.736 14.4328 131.14 17.022ZM145.794 16.1003H142.459V35.272H137.195V0.527385H142.459V11.4945H145.794V0H151.103V36.7612H145.794V16.1003Z" fill="#004499"/>
</svg>
