<svg width="218" height="67" viewBox="0 0 218 67" fill="none" xmlns="http://www.w3.org/2000/svg">
<path d="M30.0678 25.2696C30.0678 33.5828 23.3345 40.3036 15.0339 40.3036C6.73328 40.3036 0 33.5828 0 25.2696C0 16.9689 6.73328 10.248 15.0339 10.248C23.3345 10.248 30.0678 16.9689 30.0678 25.2696Z" fill="white"/>
<path d="M6.88823 25.2689C8.11702 28.5165 11.2141 30.8362 14.8754 30.9114C11.841 30.8236 9.39597 28.3284 9.39597 25.2689C9.39597 22.2094 11.841 19.7017 14.9005 19.639C14.9506 19.639 14.9882 19.639 15.0509 19.639C19.8658 19.639 23.7653 23.5386 23.7653 28.3535C23.7653 33.1684 19.8658 37.0679 15.0509 37.0679C21.5585 37.0679 26.8373 31.7891 26.8373 25.2689C26.8373 18.7613 21.5585 13.4824 15.0509 13.4824C14.9632 13.4824 14.8879 13.4824 14.8127 13.4824C10.1107 13.6078 6.33653 17.4698 6.33653 22.1969C6.32399 23.2752 6.51207 24.3285 6.88823 25.2689Z" fill="#E62C2A"/>
<path d="M23.2022 25.2689C21.9734 22.0214 18.8763 19.7017 15.215 19.639C15.3906 19.639 15.5661 19.6641 15.7416 19.6766C15.7792 19.6766 15.8169 19.6891 15.8545 19.6891C15.9423 19.7017 16.0175 19.7142 16.0927 19.7268C16.1178 19.7268 16.1554 19.7393 16.1805 19.7393C16.2056 19.7393 16.2306 19.7518 16.2557 19.7518C18.7885 20.3035 20.6944 22.5605 20.6944 25.2564C20.6944 28.3284 18.2494 30.8236 15.2025 30.8988H15.0645C10.2497 30.8988 6.33761 26.9993 6.33761 22.1844C6.33761 17.5199 9.99891 13.7081 14.6131 13.4824C8.30618 13.7207 3.26562 18.8992 3.26562 25.2689C3.26562 31.7891 8.54442 37.0679 15.052 37.0679C15.1272 37.0679 15.215 37.0679 15.2902 37.0679C19.9923 36.9426 23.7664 33.0806 23.7664 28.3535C23.7539 27.2626 23.5532 26.2344 23.2022 25.2689Z" fill="#204284"/>
<path d="M15.0352 23.4355V27.1094" stroke="#1D1C1A" stroke-width="0.2467"/>
<path d="M13.1992 25.2715H16.8605" stroke="#1D1C1A" stroke-width="0.2467"/>
<path d="M15.5179 25.2664C15.5179 25.5422 15.2922 25.7554 15.0289 25.7554C14.753 25.7554 14.5273 25.5297 14.5273 25.2664C14.5273 24.9905 14.753 24.7773 15.0289 24.7773C15.3047 24.7773 15.5179 25.003 15.5179 25.2664Z" fill="#FAE810" stroke="#1D1C1A" stroke-width="0.2467"/>
<path d="M15.5179 23.441C15.5179 23.7169 15.2922 23.9426 15.0289 23.9426C14.753 23.9426 14.5273 23.7169 14.5273 23.441C14.5273 23.1652 14.753 22.9395 15.0289 22.9395C15.3047 22.952 15.5179 23.1777 15.5179 23.441Z" fill="#FAE810" stroke="#1D1C1A" stroke-width="0.2467"/>
<path d="M15.5179 27.1168C15.5179 27.3926 15.2922 27.6058 15.0289 27.6058C14.753 27.6058 14.5273 27.3801 14.5273 27.1168C14.5273 26.8409 14.753 26.6152 15.0289 26.6152C15.3047 26.6152 15.5179 26.8409 15.5179 27.1168Z" fill="#FAE810" stroke="#1D1C1A" stroke-width="0.2467"/>
<path d="M13.2047 24.7773C13.468 24.7773 13.6937 25.003 13.6937 25.2664C13.6937 25.5422 13.468 25.7554 13.2047 25.7554C12.9288 25.7554 12.7031 25.5297 12.7031 25.2664C12.7031 25.003 12.9288 24.7773 13.2047 24.7773Z" fill="#FAE810" stroke="#1D1C1A" stroke-width="0.2467"/>
<path d="M16.8687 24.7773C17.1446 24.7773 17.3703 25.003 17.3703 25.2664C17.3703 25.5422 17.1446 25.7554 16.8687 25.7554C16.5929 25.7554 16.3672 25.5297 16.3672 25.2664C16.3797 25.003 16.6054 24.7773 16.8687 24.7773Z" fill="#FAE810" stroke="#1D1C1A" stroke-width="0.2467"/>
<path d="M19.2998 25.2691C19.2998 27.6264 17.3939 29.5323 15.0366 29.5323C12.6793 29.5323 10.7734 27.6264 10.7734 25.2691C10.7734 22.9118 12.6793 21.0059 15.0366 21.0059C17.3939 21.0184 19.2998 22.9243 19.2998 25.2691Z" stroke="#1D1C1A" stroke-width="0.2467"/>
<path d="M15.6381 21.0304C15.6381 21.369 15.3748 21.6448 15.0363 21.6448C14.6977 21.6448 14.4219 21.369 14.4219 21.0304C14.4219 20.6919 14.6977 20.416 15.0363 20.416C15.3748 20.416 15.6381 20.6919 15.6381 21.0304Z" fill="#FAE810" stroke="#1D1C1A" stroke-width="0.2467"/>
<path d="M15.6381 29.5207C15.6381 29.8467 15.3748 30.1225 15.0363 30.1225C14.6977 30.1225 14.4219 29.8467 14.4219 29.5207C14.4219 29.1821 14.6977 28.9062 15.0363 28.9062C15.3748 28.9188 15.6381 29.1821 15.6381 29.5207Z" fill="#FAE810" stroke="#1D1C1A" stroke-width="0.2467"/>
<path d="M13.03 21.482C13.2306 21.7454 13.1679 22.1341 12.8921 22.3347C12.6162 22.5353 12.2275 22.4726 12.0395 22.1967C11.8388 21.9334 11.9015 21.5447 12.1774 21.3566C12.4532 21.156 12.8294 21.2187 13.03 21.482Z" fill="#FAE810" stroke="#1D1C1A" stroke-width="0.2467"/>
<path d="M18.0144 28.3536C18.215 28.6294 18.1523 29.0056 17.8764 29.2062C17.6006 29.4069 17.2244 29.3442 17.0363 29.0683C16.8357 28.7924 16.8984 28.4163 17.1617 28.2157C17.4376 28.0276 17.8137 28.0777 18.0144 28.3536Z" fill="#FAE810" stroke="#1D1C1A" stroke-width="0.2467"/>
<path d="M11.1876 23.3904C11.5011 23.4907 11.6892 23.8418 11.5763 24.1553C11.476 24.4688 11.1249 24.6443 10.8115 24.544C10.498 24.4437 10.3225 24.0926 10.4228 23.7791C10.5231 23.4657 10.8616 23.2776 11.1876 23.3904Z" fill="#FAE810" stroke="#1D1C1A" stroke-width="0.2467"/>
<path d="M19.258 26.0067C19.5714 26.107 19.747 26.4455 19.6467 26.7715C19.5463 27.085 19.2078 27.2606 18.8818 27.1728C18.5683 27.0599 18.3928 26.7214 18.4931 26.4079C18.5934 26.0819 18.9445 25.9064 19.258 26.0067Z" fill="#FAE810" stroke="#1D1C1A" stroke-width="0.2467"/>
<path d="M10.8115 26.0057C11.1375 25.8928 11.476 26.0809 11.5763 26.3944C11.6892 26.7078 11.5011 27.0589 11.1876 27.1592C10.8616 27.2595 10.5231 27.084 10.4228 26.758C10.3225 26.4571 10.498 26.1185 10.8115 26.0057Z" fill="#FAE810" stroke="#1D1C1A" stroke-width="0.2467"/>
<path d="M18.8818 23.3914C19.1953 23.2911 19.5463 23.4667 19.6467 23.7927C19.7595 24.1062 19.5714 24.4572 19.258 24.5576C18.9445 24.6579 18.5934 24.4823 18.4931 24.1689C18.3928 23.8303 18.5683 23.4918 18.8818 23.3914Z" fill="#FAE810" stroke="#1D1C1A" stroke-width="0.2467"/>
<path d="M12.0504 28.3536C12.2385 28.0777 12.6272 28.0276 12.903 28.2157C13.1663 28.4163 13.229 28.7924 13.041 29.0683C12.8403 29.3316 12.4642 29.3943 12.2009 29.2062C11.9125 29.0056 11.8498 28.6294 12.0504 28.3536Z" fill="#FAE810" stroke="#1D1C1A" stroke-width="0.2467"/>
<path d="M17.0363 21.4825C17.2244 21.2191 17.6131 21.1439 17.8764 21.3445C18.1523 21.5452 18.2024 21.9213 18.0144 22.1846C17.8137 22.4605 17.4376 22.5106 17.1617 22.3226C16.8984 22.1345 16.8357 21.7458 17.0363 21.4825Z" fill="#FAE810" stroke="#1D1C1A" stroke-width="0.2467"/>
<path d="M15.0324 10.9863C7.14556 10.9863 0.738281 17.3811 0.738281 25.2806C0.738281 33.1675 7.13302 39.5748 15.0324 39.5748C22.9192 39.5748 29.3265 33.18 29.3265 25.2806C29.3265 17.3811 22.9318 10.9863 15.0324 10.9863ZM15.0324 38.8476C7.53426 38.8476 1.45299 32.7663 1.45299 25.268C1.45299 17.7698 7.53426 11.6885 15.0324 11.6885C22.5305 11.6885 28.6118 17.7698 28.6118 25.268C28.6118 32.7663 22.5305 38.8476 15.0324 38.8476Z" fill="#211F1E" stroke="white" stroke-width="0.2827" stroke-miterlimit="10"/>
<path d="M170.889 41.4863C170.889 41.712 170.889 53.5111 170.889 53.7368C171.102 53.7368 173.485 53.7368 173.698 53.7368C173.698 53.5111 173.698 41.7246 173.698 41.4863C173.497 41.4863 171.102 41.4863 170.889 41.4863ZM154.664 41.4863C154.664 41.712 154.664 51.0911 154.664 51.0911C154.664 51.9562 154.802 52.5706 155.078 52.9343C155.329 53.2227 155.73 53.3606 156.294 53.3606C156.294 53.3606 165.059 53.3606 165.284 53.3606C165.284 53.1474 165.284 50.4767 165.284 50.276C165.059 50.276 157.987 50.276 157.987 50.276V48.8592C157.987 48.8592 162.589 48.8592 162.814 48.8592C162.814 48.646 162.814 46.2887 162.814 46.0881C162.589 46.0881 157.987 46.0881 157.987 46.0881V44.7339C157.987 44.7339 164.845 44.7339 165.071 44.7339C165.071 44.5207 165.071 41.6995 165.071 41.4863C164.845 41.4863 154.89 41.4863 154.664 41.4863ZM166.751 41.4989C166.751 41.7246 166.751 45.7871 166.751 45.7871C166.751 45.7871 164.595 45.7871 164.394 45.7871C164.394 45.9878 164.394 48.9218 164.394 49.135C164.607 49.135 166.751 49.135 166.751 49.135C166.751 49.135 166.751 53.486 166.751 53.7117C166.952 53.7117 169.284 53.7117 169.485 53.7117C169.485 53.486 169.485 41.7371 169.485 41.4989C169.284 41.4989 166.952 41.4989 166.751 41.4989ZM159.078 55.1286C159.078 55.3417 159.078 57.8871 159.078 58.1003C159.303 58.1003 171.115 58.1003 171.115 58.1003V59.3542C171.115 59.3542 159.303 59.3542 159.078 59.3542C159.078 59.5798 159.078 64.6832 159.078 64.6832C159.078 65.4355 159.191 65.9746 159.416 66.2756C159.604 66.5138 159.905 66.6392 160.344 66.6392C160.344 66.6392 173.472 66.6392 173.698 66.6392C173.698 66.426 173.698 63.7177 173.698 63.5045C173.472 63.5045 161.661 63.5045 161.661 63.5045V62.1879C161.661 62.1879 173.472 62.1879 173.698 62.1879C173.698 61.9622 173.698 55.3668 173.698 55.1411C173.472 55.1286 159.316 55.1286 159.078 55.1286Z" fill="#919396"/>
<path d="M199.327 41.493C199.327 41.7062 199.327 44.4146 199.327 44.6152C199.553 44.6152 213.972 44.6152 213.972 44.6152V46.5336C213.972 46.5336 199.553 46.5336 199.327 46.5336C199.327 46.7342 199.327 49.1542 199.327 49.3674C199.553 49.3674 213.972 49.3674 213.972 49.3674C213.972 49.3674 213.972 51.3987 213.972 51.6118C214.186 51.6118 216.706 51.6118 216.919 51.6118C216.919 51.3861 216.919 41.7062 216.919 41.4805C216.693 41.493 199.553 41.493 199.327 41.493ZM204.631 50.2075C204.631 50.4081 204.631 52.2889 204.631 52.2889C204.631 52.2889 198.312 52.2889 198.086 52.2889C198.086 52.5021 198.086 55.3359 198.086 55.549C198.324 55.549 217.659 55.549 217.885 55.549C217.885 55.3359 217.885 52.5021 217.885 52.2889C217.646 52.2889 207.653 52.2889 207.653 52.2889C207.653 52.2889 207.653 50.4081 207.653 50.2075C207.427 50.2075 204.832 50.2075 204.631 50.2075ZM199.327 57.1791C199.327 57.4048 199.327 64.4265 199.327 64.4265C199.327 65.2541 199.453 65.8559 199.691 66.207C199.904 66.4829 200.255 66.6208 200.744 66.6208H215.49C215.966 66.6208 216.305 66.4829 216.53 66.1945C216.794 65.8559 216.919 65.2541 216.919 64.4265C216.919 64.4265 216.919 57.4048 216.919 57.1791C216.693 57.1791 199.553 57.1791 199.327 57.1791ZM202.224 63.4736V60.226H214.035V63.599H202.224V63.4736Z" fill="#919396"/>
<path d="M133.301 41.7383C133.301 41.9514 133.301 44.4717 133.301 44.6724C133.527 44.6724 140.198 44.6724 140.198 44.6724L140.122 44.8479C139.796 45.5125 138.994 46.0266 137.727 46.3776C136.637 46.641 135.144 46.829 133.289 46.9043C133.289 47.1049 133.289 49.7882 133.289 50.0139C135.182 49.9387 136.85 49.738 138.254 49.412C140.21 48.9732 141.552 48.2961 142.229 47.4309L142.317 47.3055L142.417 47.4309C143.069 48.3086 144.385 48.9732 146.316 49.412C147.696 49.738 149.388 49.9387 151.344 50.0139C151.344 49.7882 151.344 47.1049 151.344 46.9043C149.451 46.8165 147.984 46.6284 146.881 46.3149C145.589 45.9639 144.812 45.4874 144.473 44.8479L144.385 44.6724C144.385 44.6724 151.106 44.6724 151.344 44.6724C151.344 44.4592 151.344 41.9389 151.344 41.7383C151.119 41.7383 133.527 41.7383 133.301 41.7383ZM140.799 49.3619C140.799 49.575 140.799 51.5311 140.799 51.5311C140.799 51.5311 132.862 51.5311 132.637 51.5311C132.637 51.7443 132.637 54.578 132.637 54.7912C132.85 54.7912 137.477 54.7912 137.477 54.7912L137.301 54.9793C136.185 56.2457 135.621 57.7629 135.621 59.4933C135.621 61.6499 136.323 63.4681 137.715 64.91C139.019 66.2517 140.586 66.9288 142.379 66.9288C144.11 66.9288 145.652 66.2517 146.956 64.91C148.36 63.4681 149.075 61.6499 149.075 59.4933C149.075 57.788 148.498 56.2708 147.382 54.9793L147.207 54.7912C147.207 54.7912 151.808 54.7912 152.034 54.7912C152.034 54.578 152.034 51.7443 152.034 51.5311C151.808 51.5311 143.859 51.5311 143.859 51.5311C143.859 51.5311 143.859 49.575 143.859 49.3619C143.646 49.3619 141.013 49.3619 140.799 49.3619ZM138.68 59.4682C138.68 58.277 139.044 57.2613 139.784 56.4338C140.486 55.6438 141.351 55.2426 142.342 55.2426C143.32 55.2426 144.172 55.6438 144.9 56.4338C145.639 57.2613 146.016 58.277 146.016 59.4682C146.016 60.6594 145.639 61.675 144.9 62.465C144.172 63.28 143.307 63.6938 142.342 63.6938C141.364 63.6938 140.498 63.28 139.784 62.465C139.044 61.6625 138.68 60.6468 138.68 59.4682Z" fill="#919396"/>
<path d="M176.633 41.4735C176.633 41.6741 176.633 43.8308 176.633 44.0314C176.859 44.0314 182.802 44.0314 182.802 44.0314V47.304C182.802 47.304 176.871 47.304 176.633 47.304C176.633 47.5297 176.633 54.5891 176.633 54.5891C176.633 55.1784 176.758 55.6047 176.996 55.843C177.222 56.0436 177.598 56.1439 178.1 56.1439C178.1 56.1439 186.375 56.1439 186.601 56.1439C186.601 55.9307 186.601 53.7866 186.601 53.5734C186.375 53.5734 179.692 53.5734 179.692 53.5734V49.7366H184.946L188.118 49.7491H188.231C188.231 49.7491 188.231 66.2251 188.231 66.4633C188.444 66.4633 191.077 66.4633 191.278 66.4633C191.278 66.2251 191.278 41.7995 191.278 41.5738C191.065 41.5738 188.432 41.5738 188.231 41.5738C188.231 41.7995 188.231 46.5768 188.231 46.5768H185.874C185.874 46.5768 185.874 41.6866 185.874 41.4609C185.661 41.4735 176.859 41.4735 176.633 41.4735ZM192.733 41.5989C192.733 41.8371 192.733 66.2627 192.733 66.4884C192.946 66.4884 195.579 66.4884 195.792 66.4884C195.792 66.2502 195.792 41.8246 195.792 41.5989C195.579 41.5989 192.946 41.5989 192.733 41.5989Z" fill="#919396"/>
<path d="M127.571 41.6367C127.571 41.8624 127.571 66.3006 127.571 66.5263C127.784 66.5263 130.417 66.5263 130.631 66.5263C130.631 66.3006 130.631 41.8624 130.631 41.6367C130.417 41.6367 127.772 41.6367 127.571 41.6367ZM123.07 41.6367C123.07 41.8624 123.07 46.6397 123.07 46.6397C123.07 46.6397 120.123 46.6397 119.897 46.6397C119.897 46.8403 119.897 49.6114 119.897 49.8246C120.123 49.8246 123.07 49.8246 123.07 49.8246C123.07 49.8246 123.07 66.3006 123.07 66.5263C123.283 66.5263 125.916 66.5263 126.117 66.5263C126.117 66.3006 126.117 41.8624 126.117 41.6367C125.916 41.6367 123.283 41.6367 123.07 41.6367ZM114.493 41.9502C114.493 42.1633 114.493 44.2197 114.493 44.2197C113.942 50.8151 110.167 54.8903 109.578 55.4796C109.704 55.63 111.384 57.5109 111.534 57.6864C114.882 53.8621 115.785 50.3136 115.785 50.276L115.885 49.8747L116.01 50.276C117.327 54.3887 120.136 57.1472 120.662 57.6363C120.8 57.4482 122.242 55.5548 122.355 55.4169C117.503 49.9374 117.315 44.1069 117.315 44.0442C117.315 44.0442 117.315 42.1633 117.315 41.9502C117.114 41.9502 114.706 41.9502 114.493 41.9502Z" fill="#919396"/>
<path d="M45.9015 23.9092C45.9015 23.9092 42.027 22.6804 42.1274 21.1882C42.2151 19.8717 43.4188 19.8967 43.6947 19.8967C43.9705 19.8967 45.3122 19.8967 45.3122 21.602H49.5503C49.5503 21.602 50.4656 16.1602 43.7448 16.1602C43.7448 16.1602 37.6636 16.11 37.6636 21.3136C37.6636 21.3136 37.5257 24.7994 42.7292 26.5172C42.7292 26.5172 45.4501 27.3448 45.4501 28.9122C45.4501 28.9122 45.5379 30.4795 43.795 30.4795C42.2778 30.4795 41.9518 28.8244 41.9518 28.0344H37.488C37.488 28.0344 36.6103 34.2537 43.6571 34.2537C50.7038 34.2537 49.8763 28.2225 49.8763 28.2225C49.8763 28.2225 49.8261 25.3637 45.9015 23.9092Z" fill="#010203"/>
<path d="M55.3047 16.7317V20.5059V23.1892V26.9634V29.8724V33.1325V33.797H67.0535V29.8724H59.4048V26.9634H66.8654V23.1892H59.4048V20.5059H67.0535V16.5938H55.3047V16.7317Z" fill="#010203"/>
<path d="M76.6184 33.3803V15.0234H81.032V34.0448C81.032 35.3363 80.7687 36.4147 80.7687 36.4147C80.054 39.1607 77.6215 45.3548 70.1484 45.568V43.1355C70.1484 43.1355 75.1263 42.333 76.4178 36.2015C76.4052 36.2015 76.6184 34.747 76.6184 33.3803Z" fill="#010203"/>
<path d="M97.0623 30.1459C94.3665 30.1459 92.1723 27.9642 92.1723 25.2558C92.1723 22.56 94.3665 20.3657 97.0623 20.3657C99.7582 20.3657 101.952 22.56 101.952 25.2558C101.94 27.9516 99.7582 30.1459 97.0623 30.1459ZM97.0623 15.9395C91.9215 15.9395 87.7461 20.1149 87.7461 25.2558C87.7461 30.3967 91.9215 34.5721 97.0623 34.5721C102.203 34.5721 106.379 30.3967 106.379 25.2558C106.366 20.1023 102.203 15.9395 97.0623 15.9395Z" fill="#010203"/>
<path d="M121.664 27.3725L114.981 16.5013H111.156V33.9177H115.344V23.4604L121.889 33.8676H125.764V16.4512H121.664V27.3725Z" fill="#010203"/>
<path d="M139.82 27.4627H144.058C144.058 27.4627 143.732 30.3592 140.008 30.3592C136.272 30.3592 135.03 27.0364 135.03 25.1055C135.03 23.1745 136.648 20.0398 139.92 20.0398C142.729 20.0398 143.832 22.209 143.832 22.209L147.707 20.1777C147.707 20.1777 145.487 16.0273 139.92 16.0273C134.341 16.0273 130.566 20.5539 130.566 25.3813C130.566 30.2213 134.98 34.2713 139.82 34.2713C144.66 34.2713 149.036 30.9485 149.036 25.1932V23.9895H139.82V27.4627Z" fill="#010203"/>
<path d="M87.5817 15.2096L90.8293 11.962L78.8799 0L66.918 11.962L70.1655 15.2096L78.8799 6.49511L87.5817 15.2096Z" fill="#E62C2A"/>
<path d="M163.028 22.6045H160.094V21.2754H167.253V22.6045H164.307V33.3754H163.04V22.6045H163.028Z" fill="#919396"/>
<path d="M173.32 27.6944H169.571V32.058H173.759V33.3745H168.305V21.2871H173.546V22.5911H169.571V26.4155H173.32V27.6944Z" fill="#919396"/>
<path d="M175.375 21.2754H176.641V32.0588H180.779V33.3754H175.388V21.2754H175.375Z" fill="#919396"/>
<path d="M187.148 27.6944H183.399V32.058H187.587V33.3745H182.133V21.2871H187.374V22.5911H183.399V26.4155H187.148V27.6944Z" fill="#919396"/>
<path d="M195.963 32.9998C195.512 33.2882 194.584 33.5766 193.405 33.5766C190.684 33.5766 188.641 31.4199 188.641 27.4451C188.641 23.6458 190.697 21.0879 193.694 21.0879C194.885 21.0879 195.662 21.4139 195.988 21.6271L195.675 22.906C195.211 22.6176 194.546 22.4045 193.731 22.4045C191.462 22.4045 189.957 24.2101 189.957 27.3949C189.957 30.3666 191.324 32.26 193.656 32.26C194.434 32.26 195.211 32.0594 195.712 31.7584L195.963 32.9998Z" fill="#919396"/>
<path d="M201.32 33.559C198.749 33.559 196.969 31.0888 196.969 27.4275C196.969 23.5906 198.862 21.0703 201.445 21.0703C204.103 21.0703 205.809 23.6032 205.809 27.1893C205.809 31.3396 203.79 33.559 201.32 33.559ZM201.37 32.2926C203.351 32.2926 204.467 30.0105 204.467 27.2645C204.467 24.857 203.464 22.3493 201.382 22.3493C199.301 22.3493 198.273 24.7693 198.273 27.3899C198.285 29.9353 199.401 32.2926 201.37 32.2926Z" fill="#919396"/>
<path d="M215.593 28.0581C215.518 26.3779 215.43 24.334 215.43 22.8419H215.405C215.054 24.2463 214.678 25.7635 214.189 27.4311L212.484 33.2993H211.531L209.951 27.544C209.487 25.8262 209.123 24.2839 208.847 22.8419H208.822C208.797 24.3466 208.722 26.3528 208.634 28.1835L208.371 33.3745H207.18L207.857 21.2871H209.449L211.092 27.1302C211.493 28.6223 211.806 29.9514 212.07 31.2053H212.095C212.358 29.9891 212.697 28.6599 213.123 27.1302L214.841 21.2871H216.433L217.035 33.3745H215.806L215.593 28.0581Z" fill="#919396"/>
</svg>
