<svg width="75" height="67" viewBox="0 0 75 67" fill="none" xmlns="http://www.w3.org/2000/svg">
<path d="M70.0549 14.6673L60.1819 7.69268C60.1819 7.69268 52.0293 1.94282 52.0386 1.9475C48.1633 -0.805894 42.7407 -0.0252219 39.8377 0.61521L7.82077 7.8376C3.50136 8.81461 0 13.1948 0 17.6217V48.9047C0 53.3363 3.50603 57.7118 7.82077 58.6935L39.8283 65.9299C44.1477 66.9069 50.5848 65.6261 54.1983 63.0737L70.0502 51.8731C74.206 48.9608 74.9633 46.6001 74.9633 42.3929V24.1476C74.9726 19.8188 74.2434 17.603 70.0549 14.6673Z" fill="#E62889"/>
<path d="M56.5164 13.2615V14.2806L48.2375 10.0407C47.354 9.58724 45.8347 9.34883 44.853 9.51244L35.5317 11.0224C34.4425 11.2 33.5543 12.2425 33.5543 13.3504V39.5333C33.5543 44.8951 29.8847 46.2087 25.8364 45.816L20.0772 45.2644C15.6643 44.8344 14.0235 41.5901 14.0235 37.7943V16.5338C14.0235 15.4306 13.14 14.6733 12.0461 14.8463L6.90394 15.6737C5.81474 15.8466 4.92188 16.8891 4.92188 17.997V38.7619C4.92188 47.4896 10.4941 52.2858 20.4745 53.7864L27.7016 54.8943C38.2851 56.479 46.6341 51.449 46.6341 39.4071V21.6292L56.5164 24.1629V34.5547C56.5164 35.6626 57.4093 36.4807 58.5078 36.3779L62.0746 36.1067C63.1778 36.0086 64.0707 35.0315 64.0707 33.9236V26.0982L69.2689 27.4305C69.9093 27.5941 70.4329 27.1921 70.4329 26.5283V22.6062C70.4329 21.9424 69.9514 21.1524 69.3624 20.8532L64.0707 18.1466V16.7956C64.0707 11.4431 61.6585 9.16652 60.0785 7.83891C59.9616 7.73606 60.0505 7.62387 60.1767 7.69399C60.1486 7.67529 52.024 1.94413 52.0333 1.9488C52.0287 1.94413 52.024 1.94413 52.0193 1.93945C54.6138 3.77193 56.5164 7.17978 56.5164 13.2615Z" fill="white"/>
</svg>
